<!-- Generated by ASPuzzle https://github.com/jolyonb/aspuzzle -->
<svg xmlns="http://www.w3.org/2000/svg" width="992" height="992" viewBox="-16 -16 992 992">
<style>
text { font-family: Tahoma, Verdana, Roboto, sans-serif; text-anchor: middle; dominant-baseline: middle; }
.halo { paint-order: stroke fill; stroke: #ffffff; stroke-width: 2px;
       stroke-linejoin: round; }
.bigtext { font-size: 48px; transform: translate(0, 4px); }
.medtext { font-size: 32px; transform: translate(0, 2px); }
.smalltext { font-size: 24px; transform: translate(0, 1px); }
.emoji { font-size: 40px; transform: translate(0, 4px); }
.lattice { fill: none; stroke: #000000; stroke-width: 1;
          stroke-linecap: butt; stroke-linejoin: bevel; vector-effect: non-scaling-stroke;
          shape-rendering: geometricprecision; }
.frame { fill: none; stroke: #000000; stroke-width: 3;
        stroke-linecap: butt; stroke-linejoin: miter; vector-effect: non-scaling-stroke;
        shape-rendering: geometricprecision; }
.edge { fill: none; stroke-linecap: butt; stroke-linejoin: miter;
       shape-rendering: geometricprecision; }
.path { fill: none; stroke-linecap: round; stroke-linejoin: round;
       shape-rendering: geometricprecision; }
</style>
<g data-layer="base">
<path class="lattice" d="M 0 128 L 0 192 L 0 256 L 0 320 L 0 384 L 0 448 L 0 512 L 0 576 L 0 640 L 0 704 L 0 768 L 0 832 L 0 896 L 0 960 L 64 960 L 128 960 L 128 896 L 128 832 L 128 768 L 128 704 L 128 640 L 128 576 L 128 512 L 128 448 L 128 384 L 128 320 L 128 256 L 128 192 L 128 128 L 128 64 L 128 0 L 192 0 L 192 64 L 128 64 L 64 64 L 0 64 L 0 0 L 64 0 L 128 0 M 0 128 L 0 64 M 0 128 L 64 128 L 128 128 L 192 128 L 192 192 L 128 192 L 64 192 L 0 192 M 0 256 L 64 256 L 128 256 L 192 256 L 192 192 L 256 192 L 256 128 L 192 128 L 192 64 L 256 64 L 256 0 L 192 0 M 0 320 L 64 320 L 128 320 L 192 320 L 192 256 L 256 256 L 256 192 L 320 192 L 320 128 L 256 128 L 256 64 L 320 64 L 320 0 L 256 0 M 0 384 L 64 384 L 128 384 L 192 384 L 192 320 L 256 320 L 256 256 L 320 256 L 320 192 L 384 192 L 384 128 L 320 128 L 320 64 L 384 64 L 384 0 L 320 0 M 0 448 L 64 448 L 128 448 L 192 448 L 192 384 L 256 384 L 256 320 L 320 320 L 320 256 L 384 256 L 384 192 L 448 192 L 448 128 L 384 128 L 384 64 L 448 64 L 448 0 L 384 0 M 0 512 L 64 512 L 128 512 L 192 512 L 192 448 L 256 448 L 256 384 L 320 384 L 320 320 L 384 320 L 384 256 L 448 256 L 448 192 L 512 192 L 512 128 L 448 128 L 448 64 L 512 64 L 512 0 L 448 0 M 0 576 L 64 576 L 128 576 L 192 576 L 192 512 L 256 512 L 256 448 L 320 448 L 320 384 L 384 384 L 384 320 L 448 320 L 448 256 L 512 256 L 512 192 L 576 192 L 576 128 L 512 128 L 512 64 L 576 64 L 576 0 L 512 0 M 0 640 L 64 640 L 128 640 L 192 640 L 192 576 L 256 576 L 256 512 L 320 512 L 320 448 L 384 448 L 384 384 L 448 384 L 448 320 L 512 320 L 512 256 L 576 256 L 576 192 L 640 192 L 640 128 L 576 128 L 576 64 L 640 64 L 640 0 L 576 0 M 0 704 L 64 704 L 128 704 L 192 704 L 192 640 L 256 640 L 256 576 L 320 576 L 320 512 L 384 512 L 384 448 L 448 448 L 448 384 L 512 384 L 512 320 L 576 320 L 576 256 L 640 256 L 640 192 L 704 192 L 704 128 L 640 128 L 640 64 L 704 64 L 704 0 L 640 0 M 0 768 L 64 768 L 128 768 L 192 768 L 192 704 L 256 704 L 256 640 L 320 640 L 320 576 L 384 576 L 384 512 L 448 512 L 448 448 L 512 448 L 512 384 L 576 384 L 576 320 L 640 320 L 640 256 L 704 256 L 704 192 L 768 192 L 768 128 L 704 128 L 704 64 L 768 64 L 768 0 L 704 0 M 0 832 L 64 832 L 128 832 L 192 832 L 192 768 L 256 768 L 256 704 L 320 704 L 320 640 L 384 640 L 384 576 L 448 576 L 448 512 L 512 512 L 512 448 L 576 448 L 576 384 L 640 384 L 640 320 L 704 320 L 704 256 L 768 256 L 768 192 L 832 192 L 832 128 L 768 128 L 768 64 L 832 64 L 832 0 L 768 0 M 0 896 L 64 896 L 128 896 L 192 896 L 192 832 L 256 832 L 256 768 L 320 768 L 320 704 L 384 704 L 384 640 L 448 640 L 448 576 L 512 576 L 512 512 L 576 512 L 576 448 L 640 448 L 640 384 L 704 384 L 704 320 L 768 320 L 768 256 L 832 256 L 832 192 L 896 192 L 896 128 L 832 128 L 832 64 L 896 64 L 896 0 L 832 0 M 128 960 L 192 960 L 192 896 L 256 896 L 256 832 L 320 832 L 320 768 L 384 768 L 384 704 L 448 704 L 448 640 L 512 640 L 512 576 L 576 576 L 576 512 L 640 512 L 640 448 L 704 448 L 704 384 L 768 384 L 768 320 L 832 320 L 832 256 L 896 256 L 896 192 L 960 192 L 960 128 L 896 128 L 896 64 L 960 64 L 960 0 L 896 0 M 192 960 L 256 960 L 256 896 L 320 896 L 320 832 L 384 832 L 384 768 L 448 768 L 448 704 L 512 704 L 512 640 L 576 640 L 576 576 L 640 576 L 640 512 L 704 512 L 704 448 L 768 448 L 768 384 L 832 384 L 832 320 L 896 320 L 896 256 L 960 256 L 960 192 M 256 960 L 320 960 L 320 896 L 384 896 L 384 832 L 448 832 L 448 768 L 512 768 L 512 704 L 576 704 L 576 640 L 640 640 L 640 576 L 704 576 L 704 512 L 768 512 L 768 448 L 832 448 L 832 384 L 896 384 L 896 320 L 960 320 L 960 256 M 320 960 L 384 960 L 384 896 L 448 896 L 448 832 L 512 832 L 512 768 L 576 768 L 576 704 L 640 704 L 640 640 L 704 640 L 704 576 L 768 576 L 768 512 L 832 512 L 832 448 L 896 448 L 896 384 L 960 384 L 960 320 M 384 960 L 448 960 L 448 896 L 512 896 L 512 832 L 576 832 L 576 768 L 640 768 L 640 704 L 704 704 L 704 640 L 768 640 L 768 576 L 832 576 L 832 512 L 896 512 L 896 448 L 960 448 L 960 384 M 448 960 L 512 960 L 512 896 L 576 896 L 576 832 L 640 832 L 640 768 L 704 768 L 704 704 L 768 704 L 768 640 L 832 640 L 832 576 L 896 576 L 896 512 L 960 512 L 960 448 M 512 960 L 576 960 L 576 896 L 640 896 L 640 832 L 704 832 L 704 768 L 768 768 L 768 704 L 832 704 L 832 640 L 896 640 L 896 576 L 960 576 L 960 512 M 576 960 L 640 960 L 640 896 L 704 896 L 704 832 L 768 832 L 768 768 L 832 768 L 832 704 L 896 704 L 896 640 L 960 640 L 960 576 M 64 0 L 64 64 L 64 128 L 64 192 L 64 256 L 64 320 L 64 384 L 64 448 L 64 512 L 64 576 L 64 640 L 64 704 L 64 768 L 64 832 L 64 896 L 64 960 M 640 960 L 704 960 L 704 896 L 768 896 L 768 832 L 832 832 L 832 768 L 896 768 L 896 704 L 960 704 L 960 640 M 704 960 L 768 960 L 768 896 L 832 896 L 832 832 L 896 832 L 896 768 L 960 768 L 960 704 M 768 960 L 832 960 L 832 896 L 896 896 L 896 832 L 960 832 L 960 768 M 832 960 L 896 960 L 896 896 L 960 896 L 960 832 M 896 960 L 960 960 L 960 896 M 960 128 L 960 64"/>
<path class="frame" d="M 0 0 L 0 64 L 0 128 L 0 192 L 0 256 L 0 320 L 0 384 L 0 448 L 0 512 L 0 576 L 0 640 L 0 704 L 0 768 L 0 832 L 0 896 L 0 960 L 64 960 L 128 960 L 192 960 L 256 960 L 320 960 L 384 960 L 448 960 L 512 960 L 576 960 L 640 960 L 704 960 L 768 960 L 832 960 L 896 960 L 960 960 L 960 896 L 960 832 L 960 768 L 960 704 L 960 640 L 960 576 L 960 512 L 960 448 L 960 384 L 960 320 L 960 256 L 960 192 L 960 128 L 960 64 L 960 0 L 896 0 L 832 0 L 768 0 L 704 0 L 640 0 L 576 0 L 512 0 L 448 0 L 384 0 L 320 0 L 256 0 L 192 0 L 128 0 L 64 0 Z"/>
</g>
<g data-layer="fill">
<polygon points="320,0 384,0 384,64 320,64" fill="#e8b004" fill-opacity="0.5" data-provenance="derived"/>
<polygon points="384,0 448,0 448,64 384,64" fill="#e8b004" fill-opacity="0.5" data-provenance="derived"/>
<polygon points="448,0 512,0 512,64 448,64" fill="#e8b004" fill-opacity="0.5" data-provenance="derived"/>
<polygon points="384,64 448,64 448,128 384,128" fill="#e8b004" fill-opacity="0.5" data-provenance="derived"/>
<polygon points="448,64 512,64 512,128 448,128" fill="#e8b004" fill-opacity="0.5" data-provenance="derived"/>
<polygon points="512,64 576,64 576,128 512,128" fill="#e8b004" fill-opacity="0.5" data-provenance="derived"/>
<polygon points="384,128 448,128 448,192 384,192" fill="#e6261f" fill-opacity="0.5" data-provenance="derived"/>
<polygon points="448,128 512,128 512,192 448,192" fill="#e6261f" fill-opacity="0.5" data-provenance="derived"/>
<polygon points="512,128 576,128 576,192 512,192" fill="#e6261f" fill-opacity="0.5" data-provenance="derived"/>
<polygon points="576,128 640,128 640,192 576,192" fill="#e6261f" fill-opacity="0.5" data-provenance="derived"/>
<polygon points="64,192 128,192 128,256 64,256" fill="#e6261f" fill-opacity="0.5" data-provenance="derived"/>
<polygon points="320,192 384,192 384,256 320,256" fill="#76b82a" fill-opacity="0.5" data-provenance="derived"/>
<polygon points="384,192 448,192 448,256 384,256" fill="#76b82a" fill-opacity="0.5" data-provenance="derived"/>
<polygon points="448,192 512,192 512,256 448,256" fill="#76b82a" fill-opacity="0.5" data-provenance="derived"/>
<polygon points="512,192 576,192 576,256 512,256" fill="#76b82a" fill-opacity="0.5" data-provenance="derived"/>
<polygon points="832,0 896,0 896,64 832,64" fill="#7ca9f2" fill-opacity="0.5" data-provenance="derived"/>
<polygon points="896,0 960,0 960,64 896,64" fill="#7ca9f2" fill-opacity="0.5" data-provenance="derived"/>
<polygon points="896,64 960,64 960,128 896,128" fill="#7ca9f2" fill-opacity="0.5" data-provenance="derived"/>
<polygon points="768,128 832,128 832,192 768,192" fill="#7ca9f2" fill-opacity="0.5" data-provenance="derived"/>
<polygon points="832,128 896,128 896,192 832,192" fill="#7ca9f2" fill-opacity="0.5" data-provenance="derived"/>
<polygon points="896,128 960,128 960,192 896,192" fill="#7ca9f2" fill-opacity="0.5" data-provenance="derived"/>
<polygon points="768,192 832,192 832,256 768,256" fill="#7ca9f2" fill-opacity="0.5" data-provenance="derived"/>
<polygon points="832,192 896,192 896,256 832,256" fill="#7ca9f2" fill-opacity="0.5" data-provenance="derived"/>
<polygon points="704,256 768,256 768,320 704,320" fill="#7ca9f2" fill-opacity="0.5" data-provenance="derived"/>
<polygon points="768,256 832,256 832,320 768,320" fill="#7ca9f2" fill-opacity="0.5" data-provenance="derived"/>
<polygon points="832,256 896,256 896,320 832,320" fill="#7ca9f2" fill-opacity="0.5" data-provenance="derived"/>
<polygon points="704,320 768,320 768,384 704,384" fill="#7ca9f2" fill-opacity="0.5" data-provenance="derived"/>
<polygon points="704,384 768,384 768,448 704,448" fill="#7ca9f2" fill-opacity="0.5" data-provenance="derived"/>
<polygon points="768,384 832,384 832,448 768,448" fill="#7ca9f2" fill-opacity="0.5" data-provenance="derived"/>
<polygon points="896,192 960,192 960,256 896,256" fill="#76b82a" fill-opacity="0.5" data-provenance="derived"/>
<polygon points="896,256 960,256 960,320 896,320" fill="#76b82a" fill-opacity="0.5" data-provenance="derived"/>
<polygon points="64,256 128,256 128,320 64,320" fill="#e8b004" fill-opacity="0.5" data-provenance="derived"/>
<polygon points="128,256 192,256 192,320 128,320" fill="#e8b004" fill-opacity="0.5" data-provenance="derived"/>
<polygon points="192,256 256,256 256,320 192,320" fill="#e8b004" fill-opacity="0.5" data-provenance="derived"/>
<polygon points="128,320 192,320 192,384 128,384" fill="#e8b004" fill-opacity="0.5" data-provenance="derived"/>
<polygon points="192,320 256,320 256,384 192,384" fill="#e8b004" fill-opacity="0.5" data-provenance="derived"/>
<polygon points="256,320 320,320 320,384 256,384" fill="#e8b004" fill-opacity="0.5" data-provenance="derived"/>
<polygon points="384,256 448,256 448,320 384,320" fill="#e6261f" fill-opacity="0.5" data-provenance="derived"/>
<polygon points="448,256 512,256 512,320 448,320" fill="#e6261f" fill-opacity="0.5" data-provenance="derived"/>
<polygon points="512,256 576,256 576,320 512,320" fill="#e6261f" fill-opacity="0.5" data-provenance="derived"/>
<polygon points="576,192 640,192 640,256 576,256" fill="#e8b004" fill-opacity="0.5" data-provenance="derived"/>
<polygon points="640,192 704,192 704,256 640,256" fill="#e8b004" fill-opacity="0.5" data-provenance="derived"/>
<polygon points="704,192 768,192 768,256 704,256" fill="#e8b004" fill-opacity="0.5" data-provenance="derived"/>
<polygon points="576,256 640,256 640,320 576,320" fill="#e8b004" fill-opacity="0.5" data-provenance="derived"/>
<polygon points="640,256 704,256 704,320 640,320" fill="#e8b004" fill-opacity="0.5" data-provenance="derived"/>
<polygon points="576,320 640,320 640,384 576,384" fill="#e8b004" fill-opacity="0.5" data-provenance="derived"/>
<polygon points="640,320 704,320 704,384 640,384" fill="#e8b004" fill-opacity="0.5" data-provenance="derived"/>
<polygon points="512,384 576,384 576,448 512,448" fill="#e8b004" fill-opacity="0.5" data-provenance="derived"/>
<polygon points="576,384 640,384 640,448 576,448" fill="#e8b004" fill-opacity="0.5" data-provenance="derived"/>
<polygon points="640,384 704,384 704,448 640,448" fill="#e8b004" fill-opacity="0.5" data-provenance="derived"/>
<polygon points="64,320 128,320 128,384 64,384" fill="#e6261f" fill-opacity="0.5" data-provenance="derived"/>
<polygon points="320,320 384,320 384,384 320,384" fill="#e6261f" fill-opacity="0.5" data-provenance="derived"/>
<polygon points="512,0 576,0 576,64 512,64" fill="#e6261f" fill-opacity="0.5" data-provenance="derived"/>
<polygon points="576,0 640,0 640,64 576,64" fill="#e6261f" fill-opacity="0.5" data-provenance="derived"/>
<polygon points="640,0 704,0 704,64 640,64" fill="#e6261f" fill-opacity="0.5" data-provenance="derived"/>
<polygon points="704,0 768,0 768,64 704,64" fill="#e6261f" fill-opacity="0.5" data-provenance="derived"/>
<polygon points="768,0 832,0 832,64 768,64" fill="#e6261f" fill-opacity="0.5" data-provenance="derived"/>
<polygon points="384,320 448,320 448,384 384,384" fill="#76b82a" fill-opacity="0.5" data-provenance="derived"/>
<polygon points="448,320 512,320 512,384 448,384" fill="#76b82a" fill-opacity="0.5" data-provenance="derived"/>
<polygon points="384,384 448,384 448,448 384,448" fill="#76b82a" fill-opacity="0.5" data-provenance="derived"/>
<polygon points="448,384 512,384 512,448 448,448" fill="#76b82a" fill-opacity="0.5" data-provenance="derived"/>
<polygon points="512,320 576,320 576,384 512,384" fill="#7ca9f2" fill-opacity="0.5" data-provenance="derived"/>
<polygon points="768,320 832,320 832,384 768,384" fill="#76b82a" fill-opacity="0.5" data-provenance="derived"/>
<polygon points="0,192 64,192 64,256 0,256" fill="#7ca9f2" fill-opacity="0.5" data-provenance="derived"/>
<polygon points="0,256 64,256 64,320 0,320" fill="#7ca9f2" fill-opacity="0.5" data-provenance="derived"/>
<polygon points="0,320 64,320 64,384 0,384" fill="#7ca9f2" fill-opacity="0.5" data-provenance="derived"/>
<polygon points="0,384 64,384 64,448 0,448" fill="#7ca9f2" fill-opacity="0.5" data-provenance="derived"/>
<polygon points="0,448 64,448 64,512 0,512" fill="#7ca9f2" fill-opacity="0.5" data-provenance="derived"/>
<polygon points="0,512 64,512 64,576 0,576" fill="#7ca9f2" fill-opacity="0.5" data-provenance="derived"/>
<polygon points="0,576 64,576 64,640 0,640" fill="#7ca9f2" fill-opacity="0.5" data-provenance="derived"/>
<polygon points="64,384 128,384 128,448 64,448" fill="#76b82a" fill-opacity="0.5" data-provenance="derived"/>
<polygon points="128,384 192,384 192,448 128,448" fill="#76b82a" fill-opacity="0.5" data-provenance="derived"/>
<polygon points="192,384 256,384 256,448 192,448" fill="#76b82a" fill-opacity="0.5" data-provenance="derived"/>
<polygon points="64,448 128,448 128,512 64,512" fill="#76b82a" fill-opacity="0.5" data-provenance="derived"/>
<polygon points="128,448 192,448 192,512 128,512" fill="#76b82a" fill-opacity="0.5" data-provenance="derived"/>
<polygon points="192,448 256,448 256,512 192,512" fill="#76b82a" fill-opacity="0.5" data-provenance="derived"/>
<polygon points="832,320 896,320 896,384 832,384" fill="#e8b004" fill-opacity="0.5" data-provenance="derived"/>
<polygon points="896,320 960,320 960,384 896,384" fill="#e8b004" fill-opacity="0.5" data-provenance="derived"/>
<polygon points="832,384 896,384 896,448 832,448" fill="#e8b004" fill-opacity="0.5" data-provenance="derived"/>
<polygon points="896,384 960,384 960,448 896,448" fill="#e8b004" fill-opacity="0.5" data-provenance="derived"/>
<polygon points="832,448 896,448 896,512 832,512" fill="#e8b004" fill-opacity="0.5" data-provenance="derived"/>
<polygon points="896,448 960,448 960,512 896,512" fill="#e8b004" fill-opacity="0.5" data-provenance="derived"/>
<polygon points="256,384 320,384 320,448 256,448" fill="#7ca9f2" fill-opacity="0.5" data-provenance="derived"/>
<polygon points="320,384 384,384 384,448 320,448" fill="#7ca9f2" fill-opacity="0.5" data-provenance="derived"/>
<polygon points="256,448 320,448 320,512 256,512" fill="#7ca9f2" fill-opacity="0.5" data-provenance="derived"/>
<polygon points="320,448 384,448 384,512 320,512" fill="#7ca9f2" fill-opacity="0.5" data-provenance="derived"/>
<polygon points="384,448 448,448 448,512 384,512" fill="#7ca9f2" fill-opacity="0.5" data-provenance="derived"/>
<polygon points="448,448 512,448 512,512 448,512" fill="#7ca9f2" fill-opacity="0.5" data-provenance="derived"/>
<polygon points="128,512 192,512 192,576 128,576" fill="#7ca9f2" fill-opacity="0.5" data-provenance="derived"/>
<polygon points="192,512 256,512 256,576 192,576" fill="#7ca9f2" fill-opacity="0.5" data-provenance="derived"/>
<polygon points="256,512 320,512 320,576 256,576" fill="#7ca9f2" fill-opacity="0.5" data-provenance="derived"/>
<polygon points="320,512 384,512 384,576 320,576" fill="#7ca9f2" fill-opacity="0.5" data-provenance="derived"/>
<polygon points="256,576 320,576 320,640 256,640" fill="#7ca9f2" fill-opacity="0.5" data-provenance="derived"/>
<polygon points="320,576 384,576 384,640 320,640" fill="#7ca9f2" fill-opacity="0.5" data-provenance="derived"/>
<polygon points="512,448 576,448 576,512 512,512" fill="#e6261f" fill-opacity="0.5" data-provenance="derived"/>
<polygon points="512,512 576,512 576,576 512,576" fill="#e6261f" fill-opacity="0.5" data-provenance="derived"/>
<polygon points="576,448 640,448 640,512 576,512" fill="#76b82a" fill-opacity="0.5" data-provenance="derived"/>
<polygon points="640,448 704,448 704,512 640,512" fill="#76b82a" fill-opacity="0.5" data-provenance="derived"/>
<polygon points="704,448 768,448 768,512 704,512" fill="#76b82a" fill-opacity="0.5" data-provenance="derived"/>
<polygon points="768,448 832,448 832,512 768,512" fill="#76b82a" fill-opacity="0.5" data-provenance="derived"/>
<polygon points="576,512 640,512 640,576 576,576" fill="#76b82a" fill-opacity="0.5" data-provenance="derived"/>
<polygon points="640,512 704,512 704,576 640,576" fill="#76b82a" fill-opacity="0.5" data-provenance="derived"/>
<polygon points="704,512 768,512 768,576 704,576" fill="#76b82a" fill-opacity="0.5" data-provenance="derived"/>
<polygon points="768,512 832,512 832,576 768,576" fill="#76b82a" fill-opacity="0.5" data-provenance="derived"/>
<polygon points="384,512 448,512 448,576 384,576" fill="#e8b004" fill-opacity="0.5" data-provenance="derived"/>
<polygon points="448,512 512,512 512,576 448,576" fill="#e8b004" fill-opacity="0.5" data-provenance="derived"/>
<polygon points="384,576 448,576 448,640 384,640" fill="#e8b004" fill-opacity="0.5" data-provenance="derived"/>
<polygon points="448,576 512,576 512,640 448,640" fill="#e8b004" fill-opacity="0.5" data-provenance="derived"/>
<polygon points="0,0 64,0 64,64 0,64" fill="#e8b004" fill-opacity="0.5" data-provenance="derived"/>
<polygon points="0,64 64,64 64,128 0,128" fill="#e8b004" fill-opacity="0.5" data-provenance="derived"/>
<polygon points="0,128 64,128 64,192 0,192" fill="#e8b004" fill-opacity="0.5" data-provenance="derived"/>
<polygon points="64,512 128,512 128,576 64,576" fill="#e8b004" fill-opacity="0.5" data-provenance="derived"/>
<polygon points="64,576 128,576 128,640 64,640" fill="#e8b004" fill-opacity="0.5" data-provenance="derived"/>
<polygon points="128,576 192,576 192,640 128,640" fill="#e8b004" fill-opacity="0.5" data-provenance="derived"/>
<polygon points="192,576 256,576 256,640 192,640" fill="#e8b004" fill-opacity="0.5" data-provenance="derived"/>
<polygon points="192,640 256,640 256,704 192,704" fill="#e8b004" fill-opacity="0.5" data-provenance="derived"/>
<polygon points="512,576 576,576 576,640 512,640" fill="#7ca9f2" fill-opacity="0.5" data-provenance="derived"/>
<polygon points="576,576 640,576 640,640 576,640" fill="#7ca9f2" fill-opacity="0.5" data-provenance="derived"/>
<polygon points="512,640 576,640 576,704 512,704" fill="#7ca9f2" fill-opacity="0.5" data-provenance="derived"/>
<polygon points="576,640 640,640 640,704 576,704" fill="#7ca9f2" fill-opacity="0.5" data-provenance="derived"/>
<polygon points="640,576 704,576 704,640 640,640" fill="#e6261f" fill-opacity="0.5" data-provenance="derived"/>
<polygon points="704,576 768,576 768,640 704,640" fill="#e6261f" fill-opacity="0.5" data-provenance="derived"/>
<polygon points="832,512 896,512 896,576 832,576" fill="#7ca9f2" fill-opacity="0.5" data-provenance="derived"/>
<polygon points="896,512 960,512 960,576 896,576" fill="#7ca9f2" fill-opacity="0.5" data-provenance="derived"/>
<polygon points="768,576 832,576 832,640 768,640" fill="#7ca9f2" fill-opacity="0.5" data-provenance="derived"/>
<polygon points="832,576 896,576 896,640 832,640" fill="#7ca9f2" fill-opacity="0.5" data-provenance="derived"/>
<polygon points="896,576 960,576 960,640 896,640" fill="#7ca9f2" fill-opacity="0.5" data-provenance="derived"/>
<polygon points="768,640 832,640 832,704 768,704" fill="#7ca9f2" fill-opacity="0.5" data-provenance="derived"/>
<polygon points="832,640 896,640 896,704 832,704" fill="#7ca9f2" fill-opacity="0.5" data-provenance="derived"/>
<polygon points="64,640 128,640 128,704 64,704" fill="#e6261f" fill-opacity="0.5" data-provenance="derived"/>
<polygon points="128,640 192,640 192,704 128,704" fill="#e6261f" fill-opacity="0.5" data-provenance="derived"/>
<polygon points="128,704 192,704 192,768 128,768" fill="#e6261f" fill-opacity="0.5" data-provenance="derived"/>
<polygon points="192,704 256,704 256,768 192,768" fill="#e6261f" fill-opacity="0.5" data-provenance="derived"/>
<polygon points="256,640 320,640 320,704 256,704" fill="#76b82a" fill-opacity="0.5" data-provenance="derived"/>
<polygon points="320,640 384,640 384,704 320,704" fill="#76b82a" fill-opacity="0.5" data-provenance="derived"/>
<polygon points="384,640 448,640 448,704 384,704" fill="#76b82a" fill-opacity="0.5" data-provenance="derived"/>
<polygon points="448,640 512,640 512,704 448,704" fill="#76b82a" fill-opacity="0.5" data-provenance="derived"/>
<polygon points="256,704 320,704 320,768 256,768" fill="#76b82a" fill-opacity="0.5" data-provenance="derived"/>
<polygon points="320,704 384,704 384,768 320,768" fill="#76b82a" fill-opacity="0.5" data-provenance="derived"/>
<polygon points="384,704 448,704 448,768 384,768" fill="#76b82a" fill-opacity="0.5" data-provenance="derived"/>
<polygon points="448,704 512,704 512,768 448,768" fill="#76b82a" fill-opacity="0.5" data-provenance="derived"/>
<polygon points="896,640 960,640 960,704 896,704" fill="#76b82a" fill-opacity="0.5" data-provenance="derived"/>
<polygon points="640,640 704,640 704,704 640,704" fill="#e8b004" fill-opacity="0.5" data-provenance="derived"/>
<polygon points="704,640 768,640 768,704 704,704" fill="#e8b004" fill-opacity="0.5" data-provenance="derived"/>
<polygon points="512,704 576,704 576,768 512,768" fill="#e8b004" fill-opacity="0.5" data-provenance="derived"/>
<polygon points="576,704 640,704 640,768 576,768" fill="#e8b004" fill-opacity="0.5" data-provenance="derived"/>
<polygon points="640,704 704,704 704,768 640,768" fill="#e8b004" fill-opacity="0.5" data-provenance="derived"/>
<polygon points="704,704 768,704 768,768 704,768" fill="#e8b004" fill-opacity="0.5" data-provenance="derived"/>
<polygon points="384,768 448,768 448,832 384,832" fill="#e8b004" fill-opacity="0.5" data-provenance="derived"/>
<polygon points="448,768 512,768 512,832 448,832" fill="#e8b004" fill-opacity="0.5" data-provenance="derived"/>
<polygon points="512,768 576,768 576,832 512,832" fill="#e8b004" fill-opacity="0.5" data-provenance="derived"/>
<polygon points="576,768 640,768 640,832 576,832" fill="#e8b004" fill-opacity="0.5" data-provenance="derived"/>
<polygon points="384,832 448,832 448,896 384,896" fill="#e8b004" fill-opacity="0.5" data-provenance="derived"/>
<polygon points="448,832 512,832 512,896 448,896" fill="#e8b004" fill-opacity="0.5" data-provenance="derived"/>
<polygon points="832,704 896,704 896,768 832,768" fill="#e8b004" fill-opacity="0.5" data-provenance="derived"/>
<polygon points="896,704 960,704 960,768 896,768" fill="#e8b004" fill-opacity="0.5" data-provenance="derived"/>
<polygon points="0,640 64,640 64,704 0,704" fill="#76b82a" fill-opacity="0.5" data-provenance="derived"/>
<polygon points="0,704 64,704 64,768 0,768" fill="#76b82a" fill-opacity="0.5" data-provenance="derived"/>
<polygon points="0,768 64,768 64,832 0,832" fill="#76b82a" fill-opacity="0.5" data-provenance="derived"/>
<polygon points="0,832 64,832 64,896 0,896" fill="#76b82a" fill-opacity="0.5" data-provenance="derived"/>
<polygon points="0,896 64,896 64,960 0,960" fill="#76b82a" fill-opacity="0.5" data-provenance="derived"/>
<polygon points="64,64 128,64 128,128 64,128" fill="#7ca9f2" fill-opacity="0.5" data-provenance="derived"/>
<polygon points="64,704 128,704 128,768 64,768" fill="#e8b004" fill-opacity="0.5" data-provenance="derived"/>
<polygon points="64,768 128,768 128,832 64,832" fill="#e8b004" fill-opacity="0.5" data-provenance="derived"/>
<polygon points="64,832 128,832 128,896 64,896" fill="#e8b004" fill-opacity="0.5" data-provenance="derived"/>
<polygon points="64,896 128,896 128,960 64,960" fill="#e8b004" fill-opacity="0.5" data-provenance="derived"/>
<polygon points="128,768 192,768 192,832 128,832" fill="#7ca9f2" fill-opacity="0.5" data-provenance="derived"/>
<polygon points="192,768 256,768 256,832 192,832" fill="#7ca9f2" fill-opacity="0.5" data-provenance="derived"/>
<polygon points="256,768 320,768 320,832 256,832" fill="#7ca9f2" fill-opacity="0.5" data-provenance="derived"/>
<polygon points="320,768 384,768 384,832 320,832" fill="#7ca9f2" fill-opacity="0.5" data-provenance="derived"/>
<polygon points="768,704 832,704 832,768 768,768" fill="#76b82a" fill-opacity="0.5" data-provenance="derived"/>
<polygon points="704,768 768,768 768,832 704,832" fill="#76b82a" fill-opacity="0.5" data-provenance="derived"/>
<polygon points="768,768 832,768 832,832 768,832" fill="#76b82a" fill-opacity="0.5" data-provenance="derived"/>
<polygon points="832,768 896,768 896,832 832,832" fill="#76b82a" fill-opacity="0.5" data-provenance="derived"/>
<polygon points="896,768 960,768 960,832 896,832" fill="#76b82a" fill-opacity="0.5" data-provenance="derived"/>
<polygon points="832,832 896,832 896,896 832,896" fill="#76b82a" fill-opacity="0.5" data-provenance="derived"/>
<polygon points="128,832 192,832 192,896 128,896" fill="#e6261f" fill-opacity="0.5" data-provenance="derived"/>
<polygon points="192,832 256,832 256,896 192,896" fill="#76b82a" fill-opacity="0.5" data-provenance="derived"/>
<polygon points="256,832 320,832 320,896 256,896" fill="#76b82a" fill-opacity="0.5" data-provenance="derived"/>
<polygon points="320,832 384,832 384,896 320,896" fill="#76b82a" fill-opacity="0.5" data-provenance="derived"/>
<polygon points="512,832 576,832 576,896 512,896" fill="#76b82a" fill-opacity="0.5" data-provenance="derived"/>
<polygon points="512,896 576,896 576,960 512,960" fill="#76b82a" fill-opacity="0.5" data-provenance="derived"/>
<polygon points="640,768 704,768 704,832 640,832" fill="#7ca9f2" fill-opacity="0.5" data-provenance="derived"/>
<polygon points="576,832 640,832 640,896 576,896" fill="#7ca9f2" fill-opacity="0.5" data-provenance="derived"/>
<polygon points="640,832 704,832 704,896 640,896" fill="#7ca9f2" fill-opacity="0.5" data-provenance="derived"/>
<polygon points="576,896 640,896 640,960 576,960" fill="#7ca9f2" fill-opacity="0.5" data-provenance="derived"/>
<polygon points="704,832 768,832 768,896 704,896" fill="#e8b004" fill-opacity="0.5" data-provenance="derived"/>
<polygon points="768,832 832,832 832,896 768,896" fill="#e8b004" fill-opacity="0.5" data-provenance="derived"/>
<polygon points="704,896 768,896 768,960 704,960" fill="#e8b004" fill-opacity="0.5" data-provenance="derived"/>
<polygon points="768,896 832,896 832,960 768,960" fill="#e8b004" fill-opacity="0.5" data-provenance="derived"/>
<polygon points="896,832 960,832 960,896 896,896" fill="#e8b004" fill-opacity="0.5" data-provenance="derived"/>
<polygon points="896,896 960,896 960,960 896,960" fill="#e8b004" fill-opacity="0.5" data-provenance="derived"/>
<polygon points="128,896 192,896 192,960 128,960" fill="#7ca9f2" fill-opacity="0.5" data-provenance="derived"/>
<polygon points="192,896 256,896 256,960 192,960" fill="#7ca9f2" fill-opacity="0.5" data-provenance="derived"/>
<polygon points="256,896 320,896 320,960 256,960" fill="#7ca9f2" fill-opacity="0.5" data-provenance="derived"/>
<polygon points="64,0 128,0 128,64 64,64" fill="#76b82a" fill-opacity="0.5" data-provenance="derived"/>
<polygon points="128,0 192,0 192,64 128,64" fill="#76b82a" fill-opacity="0.5" data-provenance="derived"/>
<polygon points="128,64 192,64 192,128 128,128" fill="#76b82a" fill-opacity="0.5" data-provenance="derived"/>
<polygon points="192,64 256,64 256,128 192,128" fill="#76b82a" fill-opacity="0.5" data-provenance="derived"/>
<polygon points="64,128 128,128 128,192 64,192" fill="#76b82a" fill-opacity="0.5" data-provenance="derived"/>
<polygon points="128,128 192,128 192,192 128,192" fill="#76b82a" fill-opacity="0.5" data-provenance="derived"/>
<polygon points="128,192 192,192 192,256 128,256" fill="#76b82a" fill-opacity="0.5" data-provenance="derived"/>
<polygon points="192,192 256,192 256,256 192,256" fill="#76b82a" fill-opacity="0.5" data-provenance="derived"/>
<polygon points="320,896 384,896 384,960 320,960" fill="#e6261f" fill-opacity="0.5" data-provenance="derived"/>
<polygon points="384,896 448,896 448,960 384,960" fill="#e6261f" fill-opacity="0.5" data-provenance="derived"/>
<polygon points="448,896 512,896 512,960 448,960" fill="#e6261f" fill-opacity="0.5" data-provenance="derived"/>
<polygon points="640,896 704,896 704,960 640,960" fill="#76b82a" fill-opacity="0.5" data-provenance="derived"/>
<polygon points="832,896 896,896 896,960 832,960" fill="#7ca9f2" fill-opacity="0.5" data-provenance="derived"/>
<polygon points="320,64 384,64 384,128 320,128" fill="#76b82a" fill-opacity="0.5" data-provenance="derived"/>
<polygon points="576,64 640,64 640,128 576,128" fill="#76b82a" fill-opacity="0.5" data-provenance="derived"/>
<polygon points="640,64 704,64 704,128 640,128" fill="#76b82a" fill-opacity="0.5" data-provenance="derived"/>
<polygon points="640,128 704,128 704,192 640,192" fill="#76b82a" fill-opacity="0.5" data-provenance="derived"/>
<polygon points="704,128 768,128 768,192 704,192" fill="#76b82a" fill-opacity="0.5" data-provenance="derived"/>
<polygon points="704,64 768,64 768,128 704,128" fill="#e8b004" fill-opacity="0.5" data-provenance="derived"/>
<polygon points="768,64 832,64 832,128 768,128" fill="#e8b004" fill-opacity="0.5" data-provenance="derived"/>
<polygon points="832,64 896,64 896,128 832,128" fill="#e8b004" fill-opacity="0.5" data-provenance="derived"/>
<polygon points="192,0 256,0 256,64 192,64" fill="#7ca9f2" fill-opacity="0.5" data-provenance="derived"/>
<polygon points="256,0 320,0 320,64 256,64" fill="#7ca9f2" fill-opacity="0.5" data-provenance="derived"/>
<polygon points="256,64 320,64 320,128 256,128" fill="#7ca9f2" fill-opacity="0.5" data-provenance="derived"/>
<polygon points="192,128 256,128 256,192 192,192" fill="#7ca9f2" fill-opacity="0.5" data-provenance="derived"/>
<polygon points="256,128 320,128 320,192 256,192" fill="#7ca9f2" fill-opacity="0.5" data-provenance="derived"/>
<polygon points="320,128 384,128 384,192 320,192" fill="#7ca9f2" fill-opacity="0.5" data-provenance="derived"/>
<polygon points="256,192 320,192 320,256 256,256" fill="#7ca9f2" fill-opacity="0.5" data-provenance="derived"/>
<polygon points="256,256 320,256 320,320 256,320" fill="#7ca9f2" fill-opacity="0.5" data-provenance="derived"/>
<polygon points="320,256 384,256 384,320 320,320" fill="#7ca9f2" fill-opacity="0.5" data-provenance="derived"/>
</g>
<g data-layer="annotation">
<circle cx="448" cy="64" data-provenance="given" r="9" fill="#ffffff" stroke="#000000" stroke-width="3.5"/>
<circle cx="672" cy="32" data-provenance="given" r="9" fill="#ffffff" stroke="#000000" stroke-width="3.5"/>
<circle cx="32" cy="96" data-provenance="given" r="9" fill="#ffffff" stroke="#000000" stroke-width="3.5"/>
<circle cx="96" cy="96" data-provenance="given" r="9" fill="#ffffff" stroke="#000000" stroke-width="3.5"/>
<circle cx="160" cy="128" data-provenance="given" r="9" fill="#ffffff" stroke="#000000" stroke-width="3.5"/>
<circle cx="352" cy="96" data-provenance="given" r="9" fill="#ffffff" stroke="#000000" stroke-width="3.5"/>
<circle cx="672" cy="128" data-provenance="given" r="9" fill="#ffffff" stroke="#000000" stroke-width="3.5"/>
<circle cx="800" cy="96" data-provenance="given" r="9" fill="#ffffff" stroke="#000000" stroke-width="3.5"/>
<circle cx="288" cy="160" data-provenance="given" r="9" fill="#ffffff" stroke="#000000" stroke-width="3.5"/>
<circle cx="512" cy="160" data-provenance="given" r="9" fill="#ffffff" stroke="#000000" stroke-width="3.5"/>
<circle cx="96" cy="224" data-provenance="given" r="9" fill="#ffffff" stroke="#000000" stroke-width="3.5"/>
<circle cx="448" cy="224" data-provenance="given" r="9" fill="#ffffff" stroke="#000000" stroke-width="3.5"/>
<circle cx="832" cy="224" data-provenance="given" r="9" fill="#ffffff" stroke="#000000" stroke-width="3.5"/>
<circle cx="928" cy="256" data-provenance="given" r="9" fill="#ffffff" stroke="#000000" stroke-width="3.5"/>
<circle cx="192" cy="320" data-provenance="given" r="9" fill="#ffffff" stroke="#000000" stroke-width="3.5"/>
<circle cx="480" cy="288" data-provenance="given" r="9" fill="#ffffff" stroke="#000000" stroke-width="3.5"/>
<circle cx="640" cy="320" data-provenance="given" r="9" fill="#ffffff" stroke="#000000" stroke-width="3.5"/>
<circle cx="96" cy="352" data-provenance="given" r="9" fill="#ffffff" stroke="#000000" stroke-width="3.5"/>
<circle cx="352" cy="352" data-provenance="given" r="9" fill="#ffffff" stroke="#000000" stroke-width="3.5"/>
<circle cx="448" cy="384" data-provenance="given" r="9" fill="#ffffff" stroke="#000000" stroke-width="3.5"/>
<circle cx="544" cy="352" data-provenance="given" r="9" fill="#ffffff" stroke="#000000" stroke-width="3.5"/>
<circle cx="800" cy="352" data-provenance="given" r="9" fill="#ffffff" stroke="#000000" stroke-width="3.5"/>
<circle cx="32" cy="416" data-provenance="given" r="9" fill="#ffffff" stroke="#000000" stroke-width="3.5"/>
<circle cx="160" cy="448" data-provenance="given" r="9" fill="#ffffff" stroke="#000000" stroke-width="3.5"/>
<circle cx="896" cy="416" data-provenance="given" r="9" fill="#ffffff" stroke="#000000" stroke-width="3.5"/>
<circle cx="320" cy="512" data-provenance="given" r="9" fill="#ffffff" stroke="#000000" stroke-width="3.5"/>
<circle cx="544" cy="512" data-provenance="given" r="9" fill="#ffffff" stroke="#000000" stroke-width="3.5"/>
<circle cx="704" cy="512" data-provenance="given" r="9" fill="#ffffff" stroke="#000000" stroke-width="3.5"/>
<circle cx="448" cy="576" data-provenance="given" r="9" fill="#ffffff" stroke="#000000" stroke-width="3.5"/>
<circle cx="160" cy="608" data-provenance="given" r="9" fill="#ffffff" stroke="#000000" stroke-width="3.5"/>
<circle cx="576" cy="640" data-provenance="given" r="9" fill="#ffffff" stroke="#000000" stroke-width="3.5"/>
<circle cx="704" cy="608" data-provenance="given" r="9" fill="#ffffff" stroke="#000000" stroke-width="3.5"/>
<circle cx="864" cy="608" data-provenance="given" r="9" fill="#ffffff" stroke="#000000" stroke-width="3.5"/>
<circle cx="160" cy="704" data-provenance="given" r="9" fill="#ffffff" stroke="#000000" stroke-width="3.5"/>
<circle cx="384" cy="704" data-provenance="given" r="9" fill="#ffffff" stroke="#000000" stroke-width="3.5"/>
<circle cx="928" cy="672" data-provenance="given" r="9" fill="#ffffff" stroke="#000000" stroke-width="3.5"/>
<circle cx="576" cy="768" data-provenance="given" r="9" fill="#ffffff" stroke="#000000" stroke-width="3.5"/>
<circle cx="896" cy="736" data-provenance="given" r="9" fill="#ffffff" stroke="#000000" stroke-width="3.5"/>
<circle cx="32" cy="800" data-provenance="given" r="9" fill="#ffffff" stroke="#000000" stroke-width="3.5"/>
<circle cx="96" cy="832" data-provenance="given" r="9" fill="#ffffff" stroke="#000000" stroke-width="3.5"/>
<circle cx="256" cy="800" data-provenance="given" r="9" fill="#ffffff" stroke="#000000" stroke-width="3.5"/>
<circle cx="832" cy="800" data-provenance="given" r="9" fill="#ffffff" stroke="#000000" stroke-width="3.5"/>
<circle cx="160" cy="864" data-provenance="given" r="9" fill="#ffffff" stroke="#000000" stroke-width="3.5"/>
<circle cx="288" cy="864" data-provenance="given" r="9" fill="#ffffff" stroke="#000000" stroke-width="3.5"/>
<circle cx="544" cy="896" data-provenance="given" r="9" fill="#ffffff" stroke="#000000" stroke-width="3.5"/>
<circle cx="640" cy="864" data-provenance="given" r="9" fill="#ffffff" stroke="#000000" stroke-width="3.5"/>
<circle cx="768" cy="896" data-provenance="given" r="9" fill="#ffffff" stroke="#000000" stroke-width="3.5"/>
<circle cx="928" cy="896" data-provenance="given" r="9" fill="#ffffff" stroke="#000000" stroke-width="3.5"/>
<circle cx="224" cy="928" data-provenance="given" r="9" fill="#ffffff" stroke="#000000" stroke-width="3.5"/>
<circle cx="416" cy="928" data-provenance="given" r="9" fill="#ffffff" stroke="#000000" stroke-width="3.5"/>
<circle cx="672" cy="928" data-provenance="given" r="9" fill="#ffffff" stroke="#000000" stroke-width="3.5"/>
<circle cx="864" cy="928" data-provenance="given" r="9" fill="#ffffff" stroke="#000000" stroke-width="3.5"/>
</g>
</svg>
