<!-- Generated by ASPuzzle https://github.com/jolyonb/aspuzzle -->
<svg xmlns="http://www.w3.org/2000/svg" width="462.4" height="472" viewBox="-62.4 -72 462.4 472">
<style>
text { font-family: Tahoma, Verdana, Roboto, sans-serif; text-anchor: middle; dominant-baseline: middle; }
.halo { paint-order: stroke fill; stroke: #ffffff; stroke-width: 2px;
       stroke-linejoin: round; }
.bigtext { font-size: 48px; transform: translate(0, 4px); }
.medtext { font-size: 32px; transform: translate(0, 2px); }
.smalltext { font-size: 24px; transform: translate(0, 1px); }
.emoji { font-size: 40px; transform: translate(0, 4px); }
.lattice { fill: none; stroke: #000000; stroke-width: 1;
          stroke-linecap: butt; stroke-linejoin: bevel; vector-effect: non-scaling-stroke;
          shape-rendering: geometricprecision; }
.frame { fill: none; stroke: #000000; stroke-width: 3;
        stroke-linecap: butt; stroke-linejoin: miter; vector-effect: non-scaling-stroke;
        shape-rendering: geometricprecision; }
.edge { fill: none; stroke-linecap: butt; stroke-linejoin: miter;
       shape-rendering: geometricprecision; }
.path { fill: none; stroke-linecap: round; stroke-linejoin: round;
       shape-rendering: geometricprecision; }
</style>
<rect x="-62.4" y="-72" width="462.4" height="472" fill="#ffffff"/>
<g data-layer="base">
<path class="lattice" d="M 0 128 L 0 192 L 0 256 L 0 320 L 0 384 L 64 384 L 128 384 L 128 320 L 128 256 L 128 192 L 128 128 L 128 64 L 128 0 L 192 0 L 192 64 L 128 64 L 64 64 L 0 64 L 0 0 L 64 0 L 128 0 M 0 128 L 0 64 M 0 128 L 64 128 L 128 128 L 192 128 L 192 192 L 128 192 L 64 192 L 0 192 M 0 256 L 64 256 L 128 256 L 192 256 L 192 192 L 256 192 L 256 128 L 192 128 L 192 64 L 256 64 L 256 0 L 192 0 M 0 320 L 64 320 L 128 320 L 192 320 L 192 256 L 256 256 L 256 192 L 320 192 L 320 128 L 256 128 L 256 64 L 320 64 L 320 0 L 256 0 M 128 384 L 192 384 L 192 320 L 256 320 L 256 256 L 320 256 L 320 192 L 384 192 L 384 128 L 320 128 L 320 64 L 384 64 L 384 0 L 320 0 M 192 384 L 256 384 L 256 320 L 320 320 L 320 256 L 384 256 L 384 192 M 256 384 L 320 384 L 320 320 L 384 320 L 384 256 M 320 384 L 384 384 L 384 320 M 384 128 L 384 64 M 64 0 L 64 64 L 64 128 L 64 192 L 64 256 L 64 320 L 64 384"/>
<path class="frame" d="M 0 0 L 0 64 L 0 128 L 0 192 L 0 256 L 0 320 L 0 384 L 64 384 L 128 384 L 192 384 L 256 384 L 320 384 L 384 384 L 384 320 L 384 256 L 384 192 L 384 128 L 384 64 L 384 0 L 320 0 L 256 0 L 192 0 L 128 0 L 64 0 Z"/>
</g>
<g data-layer="path">
<line class="path" x1="352" y1="32" x2="288" y2="32" stroke="#1d6ae5" stroke-width="6" data-provenance="derived"/>
<line class="path" x1="224" y1="96" x2="160" y2="96" stroke="#1d6ae5" stroke-width="6" data-provenance="derived"/>
<line class="path" x1="32" y1="160" x2="32" y2="224" stroke="#1d6ae5" stroke-width="6" data-provenance="derived"/>
<line class="path" x1="224" y1="224" x2="224" y2="288" stroke="#1d6ae5" stroke-width="6" data-provenance="derived"/>
<line class="path" x1="288" y1="224" x2="352" y2="224" stroke="#1d6ae5" stroke-width="6" data-provenance="derived"/>
<line class="path" x1="160" y1="352" x2="96" y2="352" stroke="#1d6ae5" stroke-width="6" data-provenance="derived"/>
<line class="path" x1="288" y1="352" x2="352" y2="352" stroke="#1d6ae5" stroke-width="6" data-provenance="derived"/>
</g>
<g data-layer="glyph">
<text x="288" y="32" class="emoji" fill="#e8b004" data-provenance="derived">⛺</text>
<text x="160" y="96" class="emoji" fill="#e8b004" data-provenance="derived">⛺</text>
<text x="32" y="224" class="emoji" fill="#e8b004" data-provenance="derived">⛺</text>
<text x="352" y="224" class="emoji" fill="#e8b004" data-provenance="derived">⛺</text>
<text x="224" y="288" class="emoji" fill="#e8b004" data-provenance="derived">⛺</text>
<text x="96" y="352" class="emoji" fill="#e8b004" data-provenance="derived">⛺</text>
<text x="352" y="352" class="emoji" fill="#e8b004" data-provenance="derived">⛺</text>
<text x="-32" y="32" class="bigtext halo" fill="#000000" data-provenance="given">1</text>
<text x="-32" y="96" class="bigtext halo" fill="#000000" data-provenance="given">1</text>
<text x="-32" y="160" class="bigtext halo" fill="#000000" data-provenance="given">0</text>
<text x="-32" y="224" class="bigtext halo" fill="#000000" data-provenance="given">2</text>
<text x="-32" y="288" class="bigtext halo" fill="#000000" data-provenance="given">1</text>
<text x="-32" y="352" class="bigtext halo" fill="#000000" data-provenance="given">2</text>
<text x="32" y="-32" class="bigtext halo" fill="#000000" data-provenance="given">1</text>
<text x="96" y="-32" class="bigtext halo" fill="#000000" data-provenance="given">1</text>
<text x="160" y="-32" class="bigtext halo" fill="#000000" data-provenance="given">1</text>
<text x="224" y="-32" class="bigtext halo" fill="#000000" data-provenance="given">1</text>
<text x="288" y="-32" class="bigtext halo" fill="#000000" data-provenance="given">1</text>
<text x="352" y="-32" class="bigtext halo" fill="#000000" data-provenance="given">2</text>
</g>
<g data-layer="annotation">
<text x="352" y="32" class="emoji" fill="#76b82a" data-provenance="given">🌳</text>
<text x="224" y="96" class="emoji" fill="#76b82a" data-provenance="given">🌳</text>
<text x="32" y="160" class="emoji" fill="#76b82a" data-provenance="given">🌳</text>
<text x="224" y="224" class="emoji" fill="#76b82a" data-provenance="given">🌳</text>
<text x="288" y="224" class="emoji" fill="#76b82a" data-provenance="given">🌳</text>
<text x="160" y="352" class="emoji" fill="#76b82a" data-provenance="given">🌳</text>
<text x="288" y="352" class="emoji" fill="#76b82a" data-provenance="given">🌳</text>
</g>
</svg>
