<!-- Generated by ASPuzzle https://github.com/jolyonb/aspuzzle -->
<svg xmlns="http://www.w3.org/2000/svg" width="672" height="672" viewBox="-16 -16 672 672">
<style>
text { font-family: Tahoma, Verdana, Roboto, sans-serif; text-anchor: middle; dominant-baseline: middle; }
.halo { paint-order: stroke fill; stroke: #ffffff; stroke-width: 2px;
       stroke-linejoin: round; }
.bigtext { font-size: 48px; transform: translate(0, 4px); }
.medtext { font-size: 32px; transform: translate(0, 2px); }
.smalltext { font-size: 24px; transform: translate(0, 1px); }
.emoji { font-size: 40px; transform: translate(0, 4px); }
.lattice { fill: none; stroke: #000000; stroke-width: 1;
          stroke-linecap: butt; stroke-linejoin: bevel; vector-effect: non-scaling-stroke;
          shape-rendering: geometricprecision; }
.frame { fill: none; stroke: #000000; stroke-width: 3;
        stroke-linecap: butt; stroke-linejoin: miter; vector-effect: non-scaling-stroke;
        shape-rendering: geometricprecision; }
.edge { fill: none; stroke-linecap: butt; stroke-linejoin: miter;
       shape-rendering: geometricprecision; }
.path { fill: none; stroke-linecap: round; stroke-linejoin: round;
       shape-rendering: geometricprecision; }
</style>
<rect x="-16" y="-16" width="672" height="672" fill="#ffffff"/>
<g data-layer="base">
<circle cx="64" cy="0" r="4" fill="#000000"/>
<circle cx="0" cy="0" r="4" fill="#000000"/>
<circle cx="64" cy="64" r="4" fill="#000000"/>
<circle cx="0" cy="64" r="4" fill="#000000"/>
<circle cx="128" cy="0" r="4" fill="#000000"/>
<circle cx="128" cy="64" r="4" fill="#000000"/>
<circle cx="192" cy="0" r="4" fill="#000000"/>
<circle cx="192" cy="64" r="4" fill="#000000"/>
<circle cx="256" cy="0" r="4" fill="#000000"/>
<circle cx="256" cy="64" r="4" fill="#000000"/>
<circle cx="320" cy="0" r="4" fill="#000000"/>
<circle cx="320" cy="64" r="4" fill="#000000"/>
<circle cx="384" cy="0" r="4" fill="#000000"/>
<circle cx="384" cy="64" r="4" fill="#000000"/>
<circle cx="448" cy="0" r="4" fill="#000000"/>
<circle cx="448" cy="64" r="4" fill="#000000"/>
<circle cx="512" cy="0" r="4" fill="#000000"/>
<circle cx="512" cy="64" r="4" fill="#000000"/>
<circle cx="576" cy="0" r="4" fill="#000000"/>
<circle cx="576" cy="64" r="4" fill="#000000"/>
<circle cx="640" cy="0" r="4" fill="#000000"/>
<circle cx="640" cy="64" r="4" fill="#000000"/>
<circle cx="64" cy="128" r="4" fill="#000000"/>
<circle cx="0" cy="128" r="4" fill="#000000"/>
<circle cx="128" cy="128" r="4" fill="#000000"/>
<circle cx="192" cy="128" r="4" fill="#000000"/>
<circle cx="256" cy="128" r="4" fill="#000000"/>
<circle cx="320" cy="128" r="4" fill="#000000"/>
<circle cx="384" cy="128" r="4" fill="#000000"/>
<circle cx="448" cy="128" r="4" fill="#000000"/>
<circle cx="512" cy="128" r="4" fill="#000000"/>
<circle cx="576" cy="128" r="4" fill="#000000"/>
<circle cx="640" cy="128" r="4" fill="#000000"/>
<circle cx="64" cy="192" r="4" fill="#000000"/>
<circle cx="0" cy="192" r="4" fill="#000000"/>
<circle cx="128" cy="192" r="4" fill="#000000"/>
<circle cx="192" cy="192" r="4" fill="#000000"/>
<circle cx="256" cy="192" r="4" fill="#000000"/>
<circle cx="320" cy="192" r="4" fill="#000000"/>
<circle cx="384" cy="192" r="4" fill="#000000"/>
<circle cx="448" cy="192" r="4" fill="#000000"/>
<circle cx="512" cy="192" r="4" fill="#000000"/>
<circle cx="576" cy="192" r="4" fill="#000000"/>
<circle cx="640" cy="192" r="4" fill="#000000"/>
<circle cx="64" cy="256" r="4" fill="#000000"/>
<circle cx="0" cy="256" r="4" fill="#000000"/>
<circle cx="128" cy="256" r="4" fill="#000000"/>
<circle cx="192" cy="256" r="4" fill="#000000"/>
<circle cx="256" cy="256" r="4" fill="#000000"/>
<circle cx="320" cy="256" r="4" fill="#000000"/>
<circle cx="384" cy="256" r="4" fill="#000000"/>
<circle cx="448" cy="256" r="4" fill="#000000"/>
<circle cx="512" cy="256" r="4" fill="#000000"/>
<circle cx="576" cy="256" r="4" fill="#000000"/>
<circle cx="640" cy="256" r="4" fill="#000000"/>
<circle cx="64" cy="320" r="4" fill="#000000"/>
<circle cx="0" cy="320" r="4" fill="#000000"/>
<circle cx="128" cy="320" r="4" fill="#000000"/>
<circle cx="192" cy="320" r="4" fill="#000000"/>
<circle cx="256" cy="320" r="4" fill="#000000"/>
<circle cx="320" cy="320" r="4" fill="#000000"/>
<circle cx="384" cy="320" r="4" fill="#000000"/>
<circle cx="448" cy="320" r="4" fill="#000000"/>
<circle cx="512" cy="320" r="4" fill="#000000"/>
<circle cx="576" cy="320" r="4" fill="#000000"/>
<circle cx="640" cy="320" r="4" fill="#000000"/>
<circle cx="64" cy="384" r="4" fill="#000000"/>
<circle cx="0" cy="384" r="4" fill="#000000"/>
<circle cx="128" cy="384" r="4" fill="#000000"/>
<circle cx="192" cy="384" r="4" fill="#000000"/>
<circle cx="256" cy="384" r="4" fill="#000000"/>
<circle cx="320" cy="384" r="4" fill="#000000"/>
<circle cx="384" cy="384" r="4" fill="#000000"/>
<circle cx="448" cy="384" r="4" fill="#000000"/>
<circle cx="512" cy="384" r="4" fill="#000000"/>
<circle cx="576" cy="384" r="4" fill="#000000"/>
<circle cx="640" cy="384" r="4" fill="#000000"/>
<circle cx="64" cy="448" r="4" fill="#000000"/>
<circle cx="0" cy="448" r="4" fill="#000000"/>
<circle cx="128" cy="448" r="4" fill="#000000"/>
<circle cx="192" cy="448" r="4" fill="#000000"/>
<circle cx="256" cy="448" r="4" fill="#000000"/>
<circle cx="320" cy="448" r="4" fill="#000000"/>
<circle cx="384" cy="448" r="4" fill="#000000"/>
<circle cx="448" cy="448" r="4" fill="#000000"/>
<circle cx="512" cy="448" r="4" fill="#000000"/>
<circle cx="576" cy="448" r="4" fill="#000000"/>
<circle cx="640" cy="448" r="4" fill="#000000"/>
<circle cx="64" cy="512" r="4" fill="#000000"/>
<circle cx="0" cy="512" r="4" fill="#000000"/>
<circle cx="128" cy="512" r="4" fill="#000000"/>
<circle cx="192" cy="512" r="4" fill="#000000"/>
<circle cx="256" cy="512" r="4" fill="#000000"/>
<circle cx="320" cy="512" r="4" fill="#000000"/>
<circle cx="384" cy="512" r="4" fill="#000000"/>
<circle cx="448" cy="512" r="4" fill="#000000"/>
<circle cx="512" cy="512" r="4" fill="#000000"/>
<circle cx="576" cy="512" r="4" fill="#000000"/>
<circle cx="640" cy="512" r="4" fill="#000000"/>
<circle cx="64" cy="576" r="4" fill="#000000"/>
<circle cx="0" cy="576" r="4" fill="#000000"/>
<circle cx="128" cy="576" r="4" fill="#000000"/>
<circle cx="192" cy="576" r="4" fill="#000000"/>
<circle cx="256" cy="576" r="4" fill="#000000"/>
<circle cx="320" cy="576" r="4" fill="#000000"/>
<circle cx="384" cy="576" r="4" fill="#000000"/>
<circle cx="448" cy="576" r="4" fill="#000000"/>
<circle cx="512" cy="576" r="4" fill="#000000"/>
<circle cx="576" cy="576" r="4" fill="#000000"/>
<circle cx="640" cy="576" r="4" fill="#000000"/>
<circle cx="64" cy="640" r="4" fill="#000000"/>
<circle cx="0" cy="640" r="4" fill="#000000"/>
<circle cx="128" cy="640" r="4" fill="#000000"/>
<circle cx="192" cy="640" r="4" fill="#000000"/>
<circle cx="256" cy="640" r="4" fill="#000000"/>
<circle cx="320" cy="640" r="4" fill="#000000"/>
<circle cx="384" cy="640" r="4" fill="#000000"/>
<circle cx="448" cy="640" r="4" fill="#000000"/>
<circle cx="512" cy="640" r="4" fill="#000000"/>
<circle cx="576" cy="640" r="4" fill="#000000"/>
<circle cx="640" cy="640" r="4" fill="#000000"/>
</g>
<g data-layer="fill">
<polygon points="0,0 64,0 64,64 0,64" fill="#a3e048" fill-opacity="0.5" data-provenance="derived"/>
<polygon points="128,0 192,0 192,64 128,64" fill="#a3e048" fill-opacity="0.5" data-provenance="derived"/>
<polygon points="192,0 256,0 256,64 192,64" fill="#a3e048" fill-opacity="0.5" data-provenance="derived"/>
<polygon points="256,0 320,0 320,64 256,64" fill="#a3e048" fill-opacity="0.5" data-provenance="derived"/>
<polygon points="320,0 384,0 384,64 320,64" fill="#a3e048" fill-opacity="0.5" data-provenance="derived"/>
<polygon points="448,0 512,0 512,64 448,64" fill="#a3e048" fill-opacity="0.5" data-provenance="derived"/>
<polygon points="512,0 576,0 576,64 512,64" fill="#a3e048" fill-opacity="0.5" data-provenance="derived"/>
<polygon points="0,576 64,576 64,640 0,640" fill="#a3e048" fill-opacity="0.5" data-provenance="derived"/>
<polygon points="576,576 640,576 640,640 576,640" fill="#a3e048" fill-opacity="0.5" data-provenance="derived"/>
<polygon points="64,576 128,576 128,640 64,640" fill="#a3e048" fill-opacity="0.5" data-provenance="derived"/>
<polygon points="128,576 192,576 192,640 128,640" fill="#a3e048" fill-opacity="0.5" data-provenance="derived"/>
<polygon points="256,576 320,576 320,640 256,640" fill="#a3e048" fill-opacity="0.5" data-provenance="derived"/>
<polygon points="320,576 384,576 384,640 320,640" fill="#a3e048" fill-opacity="0.5" data-provenance="derived"/>
<polygon points="384,576 448,576 448,640 384,640" fill="#a3e048" fill-opacity="0.5" data-provenance="derived"/>
<polygon points="448,576 512,576 512,640 448,640" fill="#a3e048" fill-opacity="0.5" data-provenance="derived"/>
<polygon points="0,64 64,64 64,128 0,128" fill="#a3e048" fill-opacity="0.5" data-provenance="derived"/>
<polygon points="320,64 384,64 384,128 320,128" fill="#a3e048" fill-opacity="0.5" data-provenance="derived"/>
<polygon points="384,64 448,64 448,128 384,128" fill="#a3e048" fill-opacity="0.5" data-provenance="derived"/>
<polygon points="448,64 512,64 512,128 448,128" fill="#a3e048" fill-opacity="0.5" data-provenance="derived"/>
<polygon points="512,64 576,64 576,128 512,128" fill="#a3e048" fill-opacity="0.5" data-provenance="derived"/>
<polygon points="0,128 64,128 64,192 0,192" fill="#a3e048" fill-opacity="0.5" data-provenance="derived"/>
<polygon points="576,128 640,128 640,192 576,192" fill="#a3e048" fill-opacity="0.5" data-provenance="derived"/>
<polygon points="64,128 128,128 128,192 64,192" fill="#a3e048" fill-opacity="0.5" data-provenance="derived"/>
<polygon points="192,128 256,128 256,192 192,192" fill="#a3e048" fill-opacity="0.5" data-provenance="derived"/>
<polygon points="512,128 576,128 576,192 512,192" fill="#a3e048" fill-opacity="0.5" data-provenance="derived"/>
<polygon points="576,192 640,192 640,256 576,256" fill="#a3e048" fill-opacity="0.5" data-provenance="derived"/>
<polygon points="64,192 128,192 128,256 64,256" fill="#a3e048" fill-opacity="0.5" data-provenance="derived"/>
<polygon points="128,192 192,192 192,256 128,256" fill="#a3e048" fill-opacity="0.5" data-provenance="derived"/>
<polygon points="192,192 256,192 256,256 192,256" fill="#a3e048" fill-opacity="0.5" data-provenance="derived"/>
<polygon points="256,192 320,192 320,256 256,256" fill="#a3e048" fill-opacity="0.5" data-provenance="derived"/>
<polygon points="448,192 512,192 512,256 448,256" fill="#a3e048" fill-opacity="0.5" data-provenance="derived"/>
<polygon points="512,192 576,192 576,256 512,256" fill="#a3e048" fill-opacity="0.5" data-provenance="derived"/>
<polygon points="0,256 64,256 64,320 0,320" fill="#a3e048" fill-opacity="0.5" data-provenance="derived"/>
<polygon points="576,256 640,256 640,320 576,320" fill="#a3e048" fill-opacity="0.5" data-provenance="derived"/>
<polygon points="64,256 128,256 128,320 64,320" fill="#a3e048" fill-opacity="0.5" data-provenance="derived"/>
<polygon points="256,256 320,256 320,320 256,320" fill="#a3e048" fill-opacity="0.5" data-provenance="derived"/>
<polygon points="384,256 448,256 448,320 384,320" fill="#a3e048" fill-opacity="0.5" data-provenance="derived"/>
<polygon points="448,256 512,256 512,320 448,320" fill="#a3e048" fill-opacity="0.5" data-provenance="derived"/>
<polygon points="0,320 64,320 64,384 0,384" fill="#a3e048" fill-opacity="0.5" data-provenance="derived"/>
<polygon points="448,320 512,320 512,384 448,384" fill="#a3e048" fill-opacity="0.5" data-provenance="derived"/>
<polygon points="0,384 64,384 64,448 0,448" fill="#a3e048" fill-opacity="0.5" data-provenance="derived"/>
<polygon points="320,384 384,384 384,448 320,448" fill="#a3e048" fill-opacity="0.5" data-provenance="derived"/>
<polygon points="384,384 448,384 448,448 384,448" fill="#a3e048" fill-opacity="0.5" data-provenance="derived"/>
<polygon points="448,384 512,384 512,448 448,448" fill="#a3e048" fill-opacity="0.5" data-provenance="derived"/>
<polygon points="512,384 576,384 576,448 512,448" fill="#a3e048" fill-opacity="0.5" data-provenance="derived"/>
<polygon points="0,448 64,448 64,512 0,512" fill="#a3e048" fill-opacity="0.5" data-provenance="derived"/>
<polygon points="64,448 128,448 128,512 64,512" fill="#a3e048" fill-opacity="0.5" data-provenance="derived"/>
<polygon points="192,448 256,448 256,512 192,512" fill="#a3e048" fill-opacity="0.5" data-provenance="derived"/>
<polygon points="512,448 576,448 576,512 512,512" fill="#a3e048" fill-opacity="0.5" data-provenance="derived"/>
<polygon points="576,512 640,512 640,576 576,576" fill="#a3e048" fill-opacity="0.5" data-provenance="derived"/>
<polygon points="64,512 128,512 128,576 64,576" fill="#a3e048" fill-opacity="0.5" data-provenance="derived"/>
<polygon points="128,512 192,512 192,576 128,576" fill="#a3e048" fill-opacity="0.5" data-provenance="derived"/>
<polygon points="192,512 256,512 256,576 192,576" fill="#a3e048" fill-opacity="0.5" data-provenance="derived"/>
<polygon points="256,512 320,512 320,576 256,576" fill="#a3e048" fill-opacity="0.5" data-provenance="derived"/>
<polygon points="448,512 512,512 512,576 448,576" fill="#a3e048" fill-opacity="0.5" data-provenance="derived"/>
<polygon points="512,512 576,512 576,576 512,576" fill="#a3e048" fill-opacity="0.5" data-provenance="derived"/>
</g>
<g data-layer="path">
<path class="edge" d="M 0 0 L 0 64 L 0 128 L 0 192 L 64 192 L 64 256 L 0 256 L 0 320 L 0 384 L 0 448 L 0 512 L 64 512 L 64 576 L 0 576 L 0 640 L 64 640 L 128 640 L 192 640 L 192 576 L 256 576 L 256 640 L 320 640 L 384 640 L 448 640 L 512 640 L 512 576 L 576 576 L 576 640 L 640 640 L 640 576 L 640 512 L 576 512 L 576 448 L 576 384 L 512 384 L 512 320 L 512 256 L 576 256 L 576 320 L 640 320 L 640 256 L 640 192 L 640 128 L 576 128 L 576 64 L 576 0 L 512 0 L 448 0 L 448 64 L 384 64 L 384 0 L 320 0 L 256 0 L 192 0 L 128 0 L 128 64 L 192 64 L 256 64 L 320 64 L 320 128 L 384 128 L 448 128 L 512 128 L 512 192 L 448 192 L 448 256 L 384 256 L 384 320 L 448 320 L 448 384 L 384 384 L 320 384 L 320 448 L 384 448 L 448 448 L 512 448 L 512 512 L 448 512 L 448 576 L 384 576 L 320 576 L 320 512 L 256 512 L 256 448 L 192 448 L 192 512 L 128 512 L 128 448 L 64 448 L 64 384 L 64 320 L 128 320 L 128 256 L 192 256 L 256 256 L 256 320 L 320 320 L 320 256 L 320 192 L 256 192 L 256 128 L 192 128 L 192 192 L 128 192 L 128 128 L 64 128 L 64 64 L 64 0 Z" stroke="#f7d038" stroke-width="3.5" data-provenance="derived"/>
</g>
<g data-layer="annotation">
<text x="32" y="32" class="bigtext halo" fill="#7ca9f2" data-provenance="given">3</text>
<text x="96" y="32" class="emoji" fill="#ed635e" data-provenance="given">🐺</text>
<text x="160" y="32" class="bigtext halo" fill="#7ca9f2" data-provenance="given">3</text>
<text x="224" y="32" class="bigtext halo" fill="#7ca9f2" data-provenance="given">2</text>
<text x="288" y="32" class="bigtext halo" fill="#7ca9f2" data-provenance="given">2</text>
<text x="416" y="32" class="emoji" fill="#ed635e" data-provenance="given">🐺</text>
<text x="544" y="32" class="bigtext halo" fill="#7ca9f2" data-provenance="given">2</text>
<text x="608" y="32" class="bigtext halo" fill="#7ca9f2" data-provenance="given">1</text>
<text x="96" y="96" class="bigtext halo" fill="#7ca9f2" data-provenance="given">2</text>
<text x="288" y="96" class="emoji" fill="#ed635e" data-provenance="given">🐺</text>
<text x="352" y="96" class="bigtext halo" fill="#7ca9f2" data-provenance="given">2</text>
<text x="608" y="96" class="emoji" fill="#ed635e" data-provenance="given">🐺</text>
<text x="96" y="160" class="bigtext halo" fill="#7ca9f2" data-provenance="given">2</text>
<text x="160" y="160" class="emoji" fill="#ed635e" data-provenance="given">🐺</text>
<text x="224" y="160" class="bigtext halo" fill="#7ca9f2" data-provenance="given">3</text>
<text x="416" y="160" class="bigtext halo" fill="#7ca9f2" data-provenance="given">1</text>
<text x="480" y="160" class="emoji" fill="#ed635e" data-provenance="given">🐺</text>
<text x="608" y="160" class="bigtext halo" fill="#7ca9f2" data-provenance="given">2</text>
<text x="32" y="224" class="emoji" fill="#ed635e" data-provenance="given">🐺</text>
<text x="160" y="224" class="bigtext halo" fill="#7ca9f2" data-provenance="given">2</text>
<text x="288" y="224" class="bigtext halo" fill="#7ca9f2" data-provenance="given">2</text>
<text x="352" y="224" class="emoji" fill="#ed635e" data-provenance="given">🐺</text>
<text x="480" y="224" class="bigtext halo" fill="#7ca9f2" data-provenance="given">2</text>
<text x="608" y="224" class="bigtext halo" fill="#7ca9f2" data-provenance="given">1</text>
<text x="224" y="288" class="emoji" fill="#ed635e" data-provenance="given">🐺</text>
<text x="416" y="288" class="bigtext halo" fill="#7ca9f2" data-provenance="given">3</text>
<text x="544" y="288" class="emoji" fill="#ed635e" data-provenance="given">🐺</text>
<text x="608" y="288" class="bigtext halo" fill="#7ca9f2" data-provenance="given">3</text>
<text x="32" y="352" class="bigtext halo" fill="#7ca9f2" data-provenance="given">2</text>
<text x="96" y="352" class="emoji" fill="#ed635e" data-provenance="given">🐺</text>
<text x="224" y="352" class="bigtext halo" fill="#7ca9f2" data-provenance="given">0</text>
<text x="416" y="352" class="emoji" fill="#ed635e" data-provenance="given">🐺</text>
<text x="32" y="416" class="bigtext halo" fill="#7ca9f2" data-provenance="given">2</text>
<text x="160" y="416" class="bigtext halo" fill="#7ca9f2" data-provenance="given">0</text>
<text x="288" y="416" class="emoji" fill="#ed635e" data-provenance="given">🐺</text>
<text x="352" y="416" class="bigtext halo" fill="#7ca9f2" data-provenance="given">3</text>
<text x="480" y="416" class="bigtext halo" fill="#7ca9f2" data-provenance="given">1</text>
<text x="608" y="416" class="emoji" fill="#ed635e" data-provenance="given">🐺</text>
<text x="32" y="480" class="bigtext halo" fill="#7ca9f2" data-provenance="given">2</text>
<text x="160" y="480" class="emoji" fill="#ed635e" data-provenance="given">🐺</text>
<text x="224" y="480" class="bigtext halo" fill="#7ca9f2" data-provenance="given">3</text>
<text x="416" y="480" class="bigtext halo" fill="#7ca9f2" data-provenance="given">1</text>
<text x="480" y="480" class="emoji" fill="#ed635e" data-provenance="given">🐺</text>
<text x="544" y="480" class="bigtext halo" fill="#7ca9f2" data-provenance="given">2</text>
<text x="32" y="544" class="emoji" fill="#ed635e" data-provenance="given">🐺</text>
<text x="288" y="544" class="bigtext halo" fill="#7ca9f2" data-provenance="given">2</text>
<text x="352" y="544" class="emoji" fill="#ed635e" data-provenance="given">🐺</text>
<text x="544" y="544" class="bigtext halo" fill="#7ca9f2" data-provenance="given">1</text>
<text x="32" y="608" class="bigtext halo" fill="#7ca9f2" data-provenance="given">3</text>
<text x="96" y="608" class="bigtext halo" fill="#7ca9f2" data-provenance="given">1</text>
<text x="224" y="608" class="emoji" fill="#ed635e" data-provenance="given">🐺</text>
<text x="352" y="608" class="bigtext halo" fill="#7ca9f2" data-provenance="given">2</text>
<text x="416" y="608" class="bigtext halo" fill="#7ca9f2" data-provenance="given">2</text>
<text x="480" y="608" class="bigtext halo" fill="#7ca9f2" data-provenance="given">2</text>
<text x="544" y="608" class="emoji" fill="#ed635e" data-provenance="given">🐺</text>
<text x="608" y="608" class="bigtext halo" fill="#7ca9f2" data-provenance="given">3</text>
</g>
</svg>
