<!-- Generated by ASPuzzle https://github.com/jolyonb/aspuzzle -->
<svg xmlns="http://www.w3.org/2000/svg" width="1038.4" height="1048" viewBox="-62.4 -72 1038.4 1048">
<style>
text { font-family: Tahoma, Verdana, Roboto, sans-serif; text-anchor: middle; dominant-baseline: middle; }
.halo { paint-order: stroke fill; stroke: #ffffff; stroke-width: 2px;
       stroke-linejoin: round; }
.bigtext { font-size: 48px; transform: translate(0, 4px); }
.medtext { font-size: 32px; transform: translate(0, 2px); }
.smalltext { font-size: 24px; transform: translate(0, 1px); }
.emoji { font-size: 40px; transform: translate(0, 4px); }
.lattice { fill: none; stroke: #000000; stroke-width: 1;
          stroke-linecap: butt; stroke-linejoin: bevel; vector-effect: non-scaling-stroke;
          shape-rendering: geometricprecision; }
.frame { fill: none; stroke: #000000; stroke-width: 3;
        stroke-linecap: butt; stroke-linejoin: miter; vector-effect: non-scaling-stroke;
        shape-rendering: geometricprecision; }
.edge { fill: none; stroke-linecap: butt; stroke-linejoin: miter;
       shape-rendering: geometricprecision; }
.path { fill: none; stroke-linecap: round; stroke-linejoin: round;
       shape-rendering: geometricprecision; }
</style>
<rect x="-62.4" y="-72" width="1038.4" height="1048" fill="#ffffff"/>
<g data-layer="base">
<path class="lattice" d="M 0 128 L 0 192 L 0 256 L 0 320 L 0 384 L 0 448 L 0 512 L 0 576 L 0 640 L 0 704 L 0 768 L 0 832 L 0 896 L 0 960 L 64 960 L 128 960 L 128 896 L 128 832 L 128 768 L 128 704 L 128 640 L 128 576 L 128 512 L 128 448 L 128 384 L 128 320 L 128 256 L 128 192 L 128 128 L 128 64 L 128 0 L 192 0 L 192 64 L 128 64 L 64 64 L 0 64 L 0 0 L 64 0 L 128 0 M 0 128 L 0 64 M 0 128 L 64 128 L 128 128 L 192 128 L 192 192 L 128 192 L 64 192 L 0 192 M 0 256 L 64 256 L 128 256 L 192 256 L 192 192 L 256 192 L 256 128 L 192 128 L 192 64 L 256 64 L 256 0 L 192 0 M 0 320 L 64 320 L 128 320 L 192 320 L 192 256 L 256 256 L 256 192 L 320 192 L 320 128 L 256 128 L 256 64 L 320 64 L 320 0 L 256 0 M 0 384 L 64 384 L 128 384 L 192 384 L 192 320 L 256 320 L 256 256 L 320 256 L 320 192 L 384 192 L 384 128 L 320 128 L 320 64 L 384 64 L 384 0 L 320 0 M 0 448 L 64 448 L 128 448 L 192 448 L 192 384 L 256 384 L 256 320 L 320 320 L 320 256 L 384 256 L 384 192 L 448 192 L 448 128 L 384 128 L 384 64 L 448 64 L 448 0 L 384 0 M 0 512 L 64 512 L 128 512 L 192 512 L 192 448 L 256 448 L 256 384 L 320 384 L 320 320 L 384 320 L 384 256 L 448 256 L 448 192 L 512 192 L 512 128 L 448 128 L 448 64 L 512 64 L 512 0 L 448 0 M 0 576 L 64 576 L 128 576 L 192 576 L 192 512 L 256 512 L 256 448 L 320 448 L 320 384 L 384 384 L 384 320 L 448 320 L 448 256 L 512 256 L 512 192 L 576 192 L 576 128 L 512 128 L 512 64 L 576 64 L 576 0 L 512 0 M 0 640 L 64 640 L 128 640 L 192 640 L 192 576 L 256 576 L 256 512 L 320 512 L 320 448 L 384 448 L 384 384 L 448 384 L 448 320 L 512 320 L 512 256 L 576 256 L 576 192 L 640 192 L 640 128 L 576 128 L 576 64 L 640 64 L 640 0 L 576 0 M 0 704 L 64 704 L 128 704 L 192 704 L 192 640 L 256 640 L 256 576 L 320 576 L 320 512 L 384 512 L 384 448 L 448 448 L 448 384 L 512 384 L 512 320 L 576 320 L 576 256 L 640 256 L 640 192 L 704 192 L 704 128 L 640 128 L 640 64 L 704 64 L 704 0 L 640 0 M 0 768 L 64 768 L 128 768 L 192 768 L 192 704 L 256 704 L 256 640 L 320 640 L 320 576 L 384 576 L 384 512 L 448 512 L 448 448 L 512 448 L 512 384 L 576 384 L 576 320 L 640 320 L 640 256 L 704 256 L 704 192 L 768 192 L 768 128 L 704 128 L 704 64 L 768 64 L 768 0 L 704 0 M 0 832 L 64 832 L 128 832 L 192 832 L 192 768 L 256 768 L 256 704 L 320 704 L 320 640 L 384 640 L 384 576 L 448 576 L 448 512 L 512 512 L 512 448 L 576 448 L 576 384 L 640 384 L 640 320 L 704 320 L 704 256 L 768 256 L 768 192 L 832 192 L 832 128 L 768 128 L 768 64 L 832 64 L 832 0 L 768 0 M 0 896 L 64 896 L 128 896 L 192 896 L 192 832 L 256 832 L 256 768 L 320 768 L 320 704 L 384 704 L 384 640 L 448 640 L 448 576 L 512 576 L 512 512 L 576 512 L 576 448 L 640 448 L 640 384 L 704 384 L 704 320 L 768 320 L 768 256 L 832 256 L 832 192 L 896 192 L 896 128 L 832 128 L 832 64 L 896 64 L 896 0 L 832 0 M 128 960 L 192 960 L 192 896 L 256 896 L 256 832 L 320 832 L 320 768 L 384 768 L 384 704 L 448 704 L 448 640 L 512 640 L 512 576 L 576 576 L 576 512 L 640 512 L 640 448 L 704 448 L 704 384 L 768 384 L 768 320 L 832 320 L 832 256 L 896 256 L 896 192 L 960 192 L 960 128 L 896 128 L 896 64 L 960 64 L 960 0 L 896 0 M 192 960 L 256 960 L 256 896 L 320 896 L 320 832 L 384 832 L 384 768 L 448 768 L 448 704 L 512 704 L 512 640 L 576 640 L 576 576 L 640 576 L 640 512 L 704 512 L 704 448 L 768 448 L 768 384 L 832 384 L 832 320 L 896 320 L 896 256 L 960 256 L 960 192 M 256 960 L 320 960 L 320 896 L 384 896 L 384 832 L 448 832 L 448 768 L 512 768 L 512 704 L 576 704 L 576 640 L 640 640 L 640 576 L 704 576 L 704 512 L 768 512 L 768 448 L 832 448 L 832 384 L 896 384 L 896 320 L 960 320 L 960 256 M 320 960 L 384 960 L 384 896 L 448 896 L 448 832 L 512 832 L 512 768 L 576 768 L 576 704 L 640 704 L 640 640 L 704 640 L 704 576 L 768 576 L 768 512 L 832 512 L 832 448 L 896 448 L 896 384 L 960 384 L 960 320 M 384 960 L 448 960 L 448 896 L 512 896 L 512 832 L 576 832 L 576 768 L 640 768 L 640 704 L 704 704 L 704 640 L 768 640 L 768 576 L 832 576 L 832 512 L 896 512 L 896 448 L 960 448 L 960 384 M 448 960 L 512 960 L 512 896 L 576 896 L 576 832 L 640 832 L 640 768 L 704 768 L 704 704 L 768 704 L 768 640 L 832 640 L 832 576 L 896 576 L 896 512 L 960 512 L 960 448 M 512 960 L 576 960 L 576 896 L 640 896 L 640 832 L 704 832 L 704 768 L 768 768 L 768 704 L 832 704 L 832 640 L 896 640 L 896 576 L 960 576 L 960 512 M 576 960 L 640 960 L 640 896 L 704 896 L 704 832 L 768 832 L 768 768 L 832 768 L 832 704 L 896 704 L 896 640 L 960 640 L 960 576 M 64 0 L 64 64 L 64 128 L 64 192 L 64 256 L 64 320 L 64 384 L 64 448 L 64 512 L 64 576 L 64 640 L 64 704 L 64 768 L 64 832 L 64 896 L 64 960 M 640 960 L 704 960 L 704 896 L 768 896 L 768 832 L 832 832 L 832 768 L 896 768 L 896 704 L 960 704 L 960 640 M 704 960 L 768 960 L 768 896 L 832 896 L 832 832 L 896 832 L 896 768 L 960 768 L 960 704 M 768 960 L 832 960 L 832 896 L 896 896 L 896 832 L 960 832 L 960 768 M 832 960 L 896 960 L 896 896 L 960 896 L 960 832 M 896 960 L 960 960 L 960 896 M 960 128 L 960 64"/>
<path class="frame" d="M 0 0 L 0 64 L 0 128 L 0 192 L 0 256 L 0 320 L 0 384 L 0 448 L 0 512 L 0 576 L 0 640 L 0 704 L 0 768 L 0 832 L 0 896 L 0 960 L 64 960 L 128 960 L 192 960 L 256 960 L 320 960 L 384 960 L 448 960 L 512 960 L 576 960 L 640 960 L 704 960 L 768 960 L 832 960 L 896 960 L 960 960 L 960 896 L 960 832 L 960 768 L 960 704 L 960 640 L 960 576 L 960 512 L 960 448 L 960 384 L 960 320 L 960 256 L 960 192 L 960 128 L 960 64 L 960 0 L 896 0 L 832 0 L 768 0 L 704 0 L 640 0 L 576 0 L 512 0 L 448 0 L 384 0 L 320 0 L 256 0 L 192 0 L 128 0 L 64 0 Z"/>
</g>
<g data-layer="path">
<line class="path" x1="736" y1="32" x2="800" y2="32" stroke="#1d6ae5" stroke-width="6" data-provenance="derived"/>
<line class="path" x1="864" y1="32" x2="928" y2="32" stroke="#1d6ae5" stroke-width="6" data-provenance="derived"/>
<line class="path" x1="96" y1="32" x2="32" y2="32" stroke="#1d6ae5" stroke-width="6" data-provenance="derived"/>
<line class="path" x1="288" y1="32" x2="224" y2="32" stroke="#1d6ae5" stroke-width="6" data-provenance="derived"/>
<line class="path" x1="352" y1="32" x2="416" y2="32" stroke="#1d6ae5" stroke-width="6" data-provenance="derived"/>
<line class="path" x1="480" y1="32" x2="544" y2="32" stroke="#1d6ae5" stroke-width="6" data-provenance="derived"/>
<line class="path" x1="608" y1="608" x2="608" y2="672" stroke="#1d6ae5" stroke-width="6" data-provenance="derived"/>
<line class="path" x1="800" y1="608" x2="800" y2="544" stroke="#1d6ae5" stroke-width="6" data-provenance="derived"/>
<line class="path" x1="864" y1="608" x2="864" y2="672" stroke="#1d6ae5" stroke-width="6" data-provenance="derived"/>
<line class="path" x1="288" y1="608" x2="352" y2="608" stroke="#1d6ae5" stroke-width="6" data-provenance="derived"/>
<line class="path" x1="544" y1="608" x2="480" y2="608" stroke="#1d6ae5" stroke-width="6" data-provenance="derived"/>
<line class="path" x1="672" y1="672" x2="736" y2="672" stroke="#1d6ae5" stroke-width="6" data-provenance="derived"/>
<line class="path" x1="224" y1="672" x2="224" y2="608" stroke="#1d6ae5" stroke-width="6" data-provenance="derived"/>
<line class="path" x1="672" y1="736" x2="672" y2="800" stroke="#1d6ae5" stroke-width="6" data-provenance="derived"/>
<line class="path" x1="800" y1="736" x2="800" y2="800" stroke="#1d6ae5" stroke-width="6" data-provenance="derived"/>
<line class="path" x1="224" y1="736" x2="224" y2="800" stroke="#1d6ae5" stroke-width="6" data-provenance="derived"/>
<line class="path" x1="480" y1="736" x2="480" y2="800" stroke="#1d6ae5" stroke-width="6" data-provenance="derived"/>
<line class="path" x1="96" y1="800" x2="96" y2="736" stroke="#1d6ae5" stroke-width="6" data-provenance="derived"/>
<line class="path" x1="416" y1="800" x2="352" y2="800" stroke="#1d6ae5" stroke-width="6" data-provenance="derived"/>
<line class="path" x1="672" y1="864" x2="672" y2="928" stroke="#1d6ae5" stroke-width="6" data-provenance="derived"/>
<line class="path" x1="224" y1="864" x2="224" y2="928" stroke="#1d6ae5" stroke-width="6" data-provenance="derived"/>
<line class="path" x1="480" y1="864" x2="480" y2="928" stroke="#1d6ae5" stroke-width="6" data-provenance="derived"/>
<line class="path" x1="32" y1="928" x2="32" y2="864" stroke="#1d6ae5" stroke-width="6" data-provenance="derived"/>
<line class="path" x1="928" y1="928" x2="864" y2="928" stroke="#1d6ae5" stroke-width="6" data-provenance="derived"/>
<line class="path" x1="928" y1="96" x2="928" y2="160" stroke="#1d6ae5" stroke-width="6" data-provenance="derived"/>
<line class="path" x1="672" y1="160" x2="672" y2="96" stroke="#1d6ae5" stroke-width="6" data-provenance="derived"/>
<line class="path" x1="736" y1="160" x2="800" y2="160" stroke="#1d6ae5" stroke-width="6" data-provenance="derived"/>
<line class="path" x1="224" y1="160" x2="160" y2="160" stroke="#1d6ae5" stroke-width="6" data-provenance="derived"/>
<line class="path" x1="416" y1="160" x2="480" y2="160" stroke="#1d6ae5" stroke-width="6" data-provenance="derived"/>
<line class="path" x1="32" y1="224" x2="32" y2="160" stroke="#1d6ae5" stroke-width="6" data-provenance="derived"/>
<line class="path" x1="544" y1="224" x2="608" y2="224" stroke="#1d6ae5" stroke-width="6" data-provenance="derived"/>
<line class="path" x1="928" y1="288" x2="928" y2="352" stroke="#1d6ae5" stroke-width="6" data-provenance="derived"/>
<line class="path" x1="96" y1="288" x2="32" y2="288" stroke="#1d6ae5" stroke-width="6" data-provenance="derived"/>
<line class="path" x1="288" y1="288" x2="288" y2="224" stroke="#1d6ae5" stroke-width="6" data-provenance="derived"/>
<line class="path" x1="32" y1="352" x2="32" y2="416" stroke="#1d6ae5" stroke-width="6" data-provenance="derived"/>
<line class="path" x1="672" y1="352" x2="736" y2="352" stroke="#1d6ae5" stroke-width="6" data-provenance="derived"/>
<line class="path" x1="416" y1="352" x2="416" y2="416" stroke="#1d6ae5" stroke-width="6" data-provenance="derived"/>
<line class="path" x1="160" y1="416" x2="160" y2="352" stroke="#1d6ae5" stroke-width="6" data-provenance="derived"/>
<line class="path" x1="288" y1="416" x2="288" y2="352" stroke="#1d6ae5" stroke-width="6" data-provenance="derived"/>
<line class="path" x1="544" y1="416" x2="544" y2="352" stroke="#1d6ae5" stroke-width="6" data-provenance="derived"/>
<line class="path" x1="736" y1="480" x2="672" y2="480" stroke="#1d6ae5" stroke-width="6" data-provenance="derived"/>
<line class="path" x1="864" y1="480" x2="928" y2="480" stroke="#1d6ae5" stroke-width="6" data-provenance="derived"/>
<line class="path" x1="96" y1="480" x2="96" y2="544" stroke="#1d6ae5" stroke-width="6" data-provenance="derived"/>
<line class="path" x1="160" y1="480" x2="224" y2="480" stroke="#1d6ae5" stroke-width="6" data-provenance="derived"/>
<line class="path" x1="544" y1="544" x2="544" y2="480" stroke="#1d6ae5" stroke-width="6" data-provenance="derived"/>
</g>
<g data-layer="glyph">
<text x="32" y="32" class="emoji" fill="#e8b004" data-provenance="derived">⛺</text>
<text x="800" y="32" class="emoji" fill="#e8b004" data-provenance="derived">⛺</text>
<text x="928" y="32" class="emoji" fill="#e8b004" data-provenance="derived">⛺</text>
<text x="224" y="32" class="emoji" fill="#e8b004" data-provenance="derived">⛺</text>
<text x="416" y="32" class="emoji" fill="#e8b004" data-provenance="derived">⛺</text>
<text x="544" y="32" class="emoji" fill="#e8b004" data-provenance="derived">⛺</text>
<text x="224" y="608" class="emoji" fill="#e8b004" data-provenance="derived">⛺</text>
<text x="352" y="608" class="emoji" fill="#e8b004" data-provenance="derived">⛺</text>
<text x="480" y="608" class="emoji" fill="#e8b004" data-provenance="derived">⛺</text>
<text x="608" y="672" class="emoji" fill="#e8b004" data-provenance="derived">⛺</text>
<text x="736" y="672" class="emoji" fill="#e8b004" data-provenance="derived">⛺</text>
<text x="864" y="672" class="emoji" fill="#e8b004" data-provenance="derived">⛺</text>
<text x="96" y="736" class="emoji" fill="#e8b004" data-provenance="derived">⛺</text>
<text x="672" y="800" class="emoji" fill="#e8b004" data-provenance="derived">⛺</text>
<text x="800" y="800" class="emoji" fill="#e8b004" data-provenance="derived">⛺</text>
<text x="224" y="800" class="emoji" fill="#e8b004" data-provenance="derived">⛺</text>
<text x="352" y="800" class="emoji" fill="#e8b004" data-provenance="derived">⛺</text>
<text x="480" y="800" class="emoji" fill="#e8b004" data-provenance="derived">⛺</text>
<text x="32" y="864" class="emoji" fill="#e8b004" data-provenance="derived">⛺</text>
<text x="672" y="928" class="emoji" fill="#e8b004" data-provenance="derived">⛺</text>
<text x="864" y="928" class="emoji" fill="#e8b004" data-provenance="derived">⛺</text>
<text x="224" y="928" class="emoji" fill="#e8b004" data-provenance="derived">⛺</text>
<text x="480" y="928" class="emoji" fill="#e8b004" data-provenance="derived">⛺</text>
<text x="672" y="96" class="emoji" fill="#e8b004" data-provenance="derived">⛺</text>
<text x="32" y="160" class="emoji" fill="#e8b004" data-provenance="derived">⛺</text>
<text x="800" y="160" class="emoji" fill="#e8b004" data-provenance="derived">⛺</text>
<text x="928" y="160" class="emoji" fill="#e8b004" data-provenance="derived">⛺</text>
<text x="160" y="160" class="emoji" fill="#e8b004" data-provenance="derived">⛺</text>
<text x="480" y="160" class="emoji" fill="#e8b004" data-provenance="derived">⛺</text>
<text x="608" y="224" class="emoji" fill="#e8b004" data-provenance="derived">⛺</text>
<text x="288" y="224" class="emoji" fill="#e8b004" data-provenance="derived">⛺</text>
<text x="32" y="288" class="emoji" fill="#e8b004" data-provenance="derived">⛺</text>
<text x="736" y="352" class="emoji" fill="#e8b004" data-provenance="derived">⛺</text>
<text x="928" y="352" class="emoji" fill="#e8b004" data-provenance="derived">⛺</text>
<text x="160" y="352" class="emoji" fill="#e8b004" data-provenance="derived">⛺</text>
<text x="288" y="352" class="emoji" fill="#e8b004" data-provenance="derived">⛺</text>
<text x="544" y="352" class="emoji" fill="#e8b004" data-provenance="derived">⛺</text>
<text x="32" y="416" class="emoji" fill="#e8b004" data-provenance="derived">⛺</text>
<text x="416" y="416" class="emoji" fill="#e8b004" data-provenance="derived">⛺</text>
<text x="672" y="480" class="emoji" fill="#e8b004" data-provenance="derived">⛺</text>
<text x="928" y="480" class="emoji" fill="#e8b004" data-provenance="derived">⛺</text>
<text x="224" y="480" class="emoji" fill="#e8b004" data-provenance="derived">⛺</text>
<text x="544" y="480" class="emoji" fill="#e8b004" data-provenance="derived">⛺</text>
<text x="800" y="544" class="emoji" fill="#e8b004" data-provenance="derived">⛺</text>
<text x="96" y="544" class="emoji" fill="#e8b004" data-provenance="derived">⛺</text>
<text x="-32" y="32" class="bigtext halo" fill="#000000" data-provenance="given">6</text>
<text x="-32" y="96" class="bigtext halo" fill="#000000" data-provenance="given">1</text>
<text x="-32" y="160" class="bigtext halo" fill="#000000" data-provenance="given">5</text>
<text x="-32" y="224" class="bigtext halo" fill="#000000" data-provenance="given">2</text>
<text x="-32" y="288" class="bigtext halo" fill="#000000" data-provenance="given">1</text>
<text x="-32" y="352" class="bigtext halo" fill="#000000" data-provenance="given">5</text>
<text x="-32" y="416" class="bigtext halo" fill="#000000" data-provenance="given">2</text>
<text x="-32" y="480" class="bigtext halo" fill="#000000" data-provenance="given">4</text>
<text x="-32" y="544" class="bigtext halo" fill="#000000" data-provenance="given">2</text>
<text x="-32" y="608" class="bigtext halo" fill="#000000" data-provenance="given">3</text>
<text x="-32" y="672" class="bigtext halo" fill="#000000" data-provenance="given">3</text>
<text x="-32" y="736" class="bigtext halo" fill="#000000" data-provenance="given">1</text>
<text x="-32" y="800" class="bigtext halo" fill="#000000" data-provenance="given">5</text>
<text x="-32" y="864" class="bigtext halo" fill="#000000" data-provenance="given">1</text>
<text x="-32" y="928" class="bigtext halo" fill="#000000" data-provenance="given">4</text>
<text x="32" y="-32" class="bigtext halo" fill="#000000" data-provenance="given">5</text>
<text x="96" y="-32" class="bigtext halo" fill="#000000" data-provenance="given">2</text>
<text x="160" y="-32" class="bigtext halo" fill="#000000" data-provenance="given">2</text>
<text x="224" y="-32" class="bigtext halo" fill="#000000" data-provenance="given">5</text>
<text x="288" y="-32" class="bigtext halo" fill="#000000" data-provenance="given">2</text>
<text x="352" y="-32" class="bigtext halo" fill="#000000" data-provenance="given">2</text>
<text x="416" y="-32" class="bigtext halo" fill="#000000" data-provenance="given">2</text>
<text x="480" y="-32" class="bigtext halo" fill="#000000" data-provenance="given">4</text>
<text x="544" y="-32" class="bigtext halo" fill="#000000" data-provenance="given">3</text>
<text x="608" y="-32" class="bigtext halo" fill="#000000" data-provenance="given">2</text>
<text x="672" y="-32" class="bigtext halo" fill="#000000" data-provenance="given">4</text>
<text x="736" y="-32" class="bigtext halo" fill="#000000" data-provenance="given">2</text>
<text x="800" y="-32" class="bigtext halo" fill="#000000" data-provenance="given">4</text>
<text x="864" y="-32" class="bigtext halo" fill="#000000" data-provenance="given">2</text>
<text x="928" y="-32" class="bigtext halo" fill="#000000" data-provenance="given">4</text>
</g>
<g data-layer="annotation">
<text x="96" y="32" class="emoji" fill="#76b82a" data-provenance="given">🌳</text>
<text x="288" y="32" class="emoji" fill="#76b82a" data-provenance="given">🌳</text>
<text x="352" y="32" class="emoji" fill="#76b82a" data-provenance="given">🌳</text>
<text x="480" y="32" class="emoji" fill="#76b82a" data-provenance="given">🌳</text>
<text x="736" y="32" class="emoji" fill="#76b82a" data-provenance="given">🌳</text>
<text x="864" y="32" class="emoji" fill="#76b82a" data-provenance="given">🌳</text>
<text x="928" y="96" class="emoji" fill="#76b82a" data-provenance="given">🌳</text>
<text x="224" y="160" class="emoji" fill="#76b82a" data-provenance="given">🌳</text>
<text x="416" y="160" class="emoji" fill="#76b82a" data-provenance="given">🌳</text>
<text x="672" y="160" class="emoji" fill="#76b82a" data-provenance="given">🌳</text>
<text x="736" y="160" class="emoji" fill="#76b82a" data-provenance="given">🌳</text>
<text x="32" y="224" class="emoji" fill="#76b82a" data-provenance="given">🌳</text>
<text x="544" y="224" class="emoji" fill="#76b82a" data-provenance="given">🌳</text>
<text x="96" y="288" class="emoji" fill="#76b82a" data-provenance="given">🌳</text>
<text x="288" y="288" class="emoji" fill="#76b82a" data-provenance="given">🌳</text>
<text x="928" y="288" class="emoji" fill="#76b82a" data-provenance="given">🌳</text>
<text x="32" y="352" class="emoji" fill="#76b82a" data-provenance="given">🌳</text>
<text x="416" y="352" class="emoji" fill="#76b82a" data-provenance="given">🌳</text>
<text x="672" y="352" class="emoji" fill="#76b82a" data-provenance="given">🌳</text>
<text x="160" y="416" class="emoji" fill="#76b82a" data-provenance="given">🌳</text>
<text x="288" y="416" class="emoji" fill="#76b82a" data-provenance="given">🌳</text>
<text x="544" y="416" class="emoji" fill="#76b82a" data-provenance="given">🌳</text>
<text x="96" y="480" class="emoji" fill="#76b82a" data-provenance="given">🌳</text>
<text x="160" y="480" class="emoji" fill="#76b82a" data-provenance="given">🌳</text>
<text x="736" y="480" class="emoji" fill="#76b82a" data-provenance="given">🌳</text>
<text x="864" y="480" class="emoji" fill="#76b82a" data-provenance="given">🌳</text>
<text x="544" y="544" class="emoji" fill="#76b82a" data-provenance="given">🌳</text>
<text x="288" y="608" class="emoji" fill="#76b82a" data-provenance="given">🌳</text>
<text x="544" y="608" class="emoji" fill="#76b82a" data-provenance="given">🌳</text>
<text x="608" y="608" class="emoji" fill="#76b82a" data-provenance="given">🌳</text>
<text x="800" y="608" class="emoji" fill="#76b82a" data-provenance="given">🌳</text>
<text x="864" y="608" class="emoji" fill="#76b82a" data-provenance="given">🌳</text>
<text x="224" y="672" class="emoji" fill="#76b82a" data-provenance="given">🌳</text>
<text x="672" y="672" class="emoji" fill="#76b82a" data-provenance="given">🌳</text>
<text x="224" y="736" class="emoji" fill="#76b82a" data-provenance="given">🌳</text>
<text x="480" y="736" class="emoji" fill="#76b82a" data-provenance="given">🌳</text>
<text x="672" y="736" class="emoji" fill="#76b82a" data-provenance="given">🌳</text>
<text x="800" y="736" class="emoji" fill="#76b82a" data-provenance="given">🌳</text>
<text x="96" y="800" class="emoji" fill="#76b82a" data-provenance="given">🌳</text>
<text x="416" y="800" class="emoji" fill="#76b82a" data-provenance="given">🌳</text>
<text x="224" y="864" class="emoji" fill="#76b82a" data-provenance="given">🌳</text>
<text x="480" y="864" class="emoji" fill="#76b82a" data-provenance="given">🌳</text>
<text x="672" y="864" class="emoji" fill="#76b82a" data-provenance="given">🌳</text>
<text x="32" y="928" class="emoji" fill="#76b82a" data-provenance="given">🌳</text>
<text x="928" y="928" class="emoji" fill="#76b82a" data-provenance="given">🌳</text>
</g>
</svg>
