<!-- Generated by ASPuzzle https://github.com/jolyonb/aspuzzle -->
<svg xmlns="http://www.w3.org/2000/svg" width="608" height="608" viewBox="-16 -16 608 608">
<style>
text { font-family: Tahoma, Verdana, Roboto, sans-serif; text-anchor: middle; dominant-baseline: middle; }
.halo { paint-order: stroke fill; stroke: #ffffff; stroke-width: 2px;
       stroke-linejoin: round; }
.bigtext { font-size: 48px; transform: translate(0, 4px); }
.medtext { font-size: 32px; transform: translate(0, 2px); }
.smalltext { font-size: 24px; transform: translate(0, 1px); }
.emoji { font-size: 40px; transform: translate(0, 4px); }
.lattice { fill: none; stroke: #000000; stroke-width: 1;
          stroke-linecap: butt; stroke-linejoin: bevel; vector-effect: non-scaling-stroke;
          shape-rendering: geometricprecision; }
.frame { fill: none; stroke: #000000; stroke-width: 3;
        stroke-linecap: butt; stroke-linejoin: miter; vector-effect: non-scaling-stroke;
        shape-rendering: geometricprecision; }
.edge { fill: none; stroke-linecap: butt; stroke-linejoin: miter;
       shape-rendering: geometricprecision; }
.path { fill: none; stroke-linecap: round; stroke-linejoin: round;
       shape-rendering: geometricprecision; }
</style>
<g data-layer="base">
<path class="lattice" d="M 0 128 L 0 192 L 0 256 L 0 320 L 0 384 L 0 448 L 0 512 L 0 576 L 64 576 L 128 576 L 128 512 L 128 448 L 128 384 L 128 320 L 128 256 L 128 192 L 128 128 L 128 64 L 128 0 L 192 0 L 192 64 L 128 64 L 64 64 L 0 64 L 0 0 L 64 0 L 128 0 M 0 128 L 0 64 M 0 128 L 64 128 L 128 128 L 192 128 L 192 192 L 128 192 L 64 192 L 0 192 M 0 256 L 64 256 L 128 256 L 192 256 L 192 192 L 256 192 L 256 128 L 192 128 L 192 64 L 256 64 L 256 0 L 192 0 M 0 320 L 64 320 L 128 320 L 192 320 L 192 256 L 256 256 L 256 192 L 320 192 L 320 128 L 256 128 L 256 64 L 320 64 L 320 0 L 256 0 M 0 384 L 64 384 L 128 384 L 192 384 L 192 320 L 256 320 L 256 256 L 320 256 L 320 192 L 384 192 L 384 128 L 320 128 L 320 64 L 384 64 L 384 0 L 320 0 M 0 448 L 64 448 L 128 448 L 192 448 L 192 384 L 256 384 L 256 320 L 320 320 L 320 256 L 384 256 L 384 192 L 448 192 L 448 128 L 384 128 L 384 64 L 448 64 L 448 0 L 384 0 M 0 512 L 64 512 L 128 512 L 192 512 L 192 448 L 256 448 L 256 384 L 320 384 L 320 320 L 384 320 L 384 256 L 448 256 L 448 192 L 512 192 L 512 128 L 448 128 L 448 64 L 512 64 L 512 0 L 448 0 M 128 576 L 192 576 L 192 512 L 256 512 L 256 448 L 320 448 L 320 384 L 384 384 L 384 320 L 448 320 L 448 256 L 512 256 L 512 192 L 576 192 L 576 128 L 512 128 L 512 64 L 576 64 L 576 0 L 512 0 M 192 576 L 256 576 L 256 512 L 320 512 L 320 448 L 384 448 L 384 384 L 448 384 L 448 320 L 512 320 L 512 256 L 576 256 L 576 192 M 256 576 L 320 576 L 320 512 L 384 512 L 384 448 L 448 448 L 448 384 L 512 384 L 512 320 L 576 320 L 576 256 M 320 576 L 384 576 L 384 512 L 448 512 L 448 448 L 512 448 L 512 384 L 576 384 L 576 320 M 384 576 L 448 576 L 448 512 L 512 512 L 512 448 L 576 448 L 576 384 M 448 576 L 512 576 L 512 512 L 576 512 L 576 448 M 512 576 L 576 576 L 576 512 M 576 128 L 576 64 M 64 0 L 64 64 L 64 128 L 64 192 L 64 256 L 64 320 L 64 384 L 64 448 L 64 512 L 64 576"/>
<path class="frame" d="M 0 0 L 0 64 L 0 128 L 0 192 L 0 256 L 0 320 L 0 384 L 0 448 L 0 512 L 0 576 L 64 576 L 128 576 L 192 576 L 256 576 L 320 576 L 384 576 L 448 576 L 512 576 L 576 576 L 576 512 L 576 448 L 576 384 L 576 320 L 576 256 L 576 192 L 576 128 L 576 64 L 576 0 L 512 0 L 448 0 L 384 0 L 320 0 L 256 0 L 192 0 L 128 0 L 64 0 Z"/>
</g>
<g data-layer="path">
<path class="path" d="M 32 32 L 64 32 M 32 32 L 32 64" stroke="#d23be7" stroke-width="9" data-provenance="derived"/>
<path class="path" d="M 96 32 L 128 32 M 96 32 L 64 32" stroke="#d23be7" stroke-width="9" data-provenance="derived"/>
<path class="path" d="M 160 32 L 192 32 M 160 32 L 128 32" stroke="#d23be7" stroke-width="9" data-provenance="derived"/>
<path class="path" d="M 224 32 L 256 32 M 224 32 L 192 32" stroke="#d23be7" stroke-width="9" data-provenance="derived"/>
<path class="path" d="M 288 32 L 320 32 M 288 32 L 256 32" stroke="#d23be7" stroke-width="9" data-provenance="derived"/>
<path class="path" d="M 352 32 L 352 64 M 352 32 L 320 32" stroke="#d23be7" stroke-width="9" data-provenance="derived"/>
<path class="path" d="M 416 32 L 448 32 M 416 32 L 416 64" stroke="#76b82a" stroke-width="9" data-provenance="derived"/>
<path class="path" d="M 480 32 L 512 32 M 480 32 L 448 32" stroke="#76b82a" stroke-width="9" data-provenance="derived"/>
<path class="path" d="M 544 32 L 544 64 M 544 32 L 512 32" stroke="#76b82a" stroke-width="9" data-provenance="derived"/>
<path class="path" d="M 32 96 L 32 64 M 32 96 L 32 128" stroke="#d23be7" stroke-width="9" data-provenance="derived"/>
<path class="path" d="M 96 96 L 128 96 M 96 96 L 96 128" stroke="#e8b004" stroke-width="9" data-provenance="derived"/>
<path class="path" d="M 160 96 L 192 96 M 160 96 L 128 96" stroke="#e8b004" stroke-width="9" data-provenance="derived"/>
<path class="path" d="M 224 96 L 224 128 M 224 96 L 192 96" stroke="#e8b004" stroke-width="9" data-provenance="derived"/>
<path class="path" d="M 352 96 L 352 64 M 352 96 L 352 128" stroke="#d23be7" stroke-width="9" data-provenance="derived"/>
<path class="path" d="M 544 96 L 544 64 M 544 96 L 544 128" stroke="#76b82a" stroke-width="9" data-provenance="derived"/>
<path class="path" d="M 96 160 L 96 128 M 96 160 L 96 192" stroke="#e8b004" stroke-width="9" data-provenance="derived"/>
<path class="path" d="M 224 160 L 224 128 M 224 160 L 224 192" stroke="#e8b004" stroke-width="9" data-provenance="derived"/>
<path class="path" d="M 288 160 L 288 128 M 288 160 L 288 192" stroke="#1d6ae5" stroke-width="9" data-provenance="derived"/>
<path class="path" d="M 352 160 L 352 128 M 352 160 L 352 192" stroke="#d23be7" stroke-width="9" data-provenance="derived"/>
<path class="path" d="M 416 160 L 448 160 M 416 160 L 416 192" stroke="#e6261f" stroke-width="9" data-provenance="derived"/>
<path class="path" d="M 480 160 L 480 128 M 480 160 L 448 160" stroke="#e6261f" stroke-width="9" data-provenance="derived"/>
<path class="path" d="M 544 160 L 544 128 M 544 160 L 544 192" stroke="#76b82a" stroke-width="9" data-provenance="derived"/>
<path class="path" d="M 32 224 L 64 224 M 32 224 L 32 256" stroke="#e8b004" stroke-width="9" data-provenance="derived"/>
<path class="path" d="M 96 224 L 96 192 M 96 224 L 64 224" stroke="#e8b004" stroke-width="9" data-provenance="derived"/>
<path class="path" d="M 160 224 L 160 192 M 160 224 L 160 256" stroke="#34bbe6" stroke-width="9" data-provenance="derived"/>
<path class="path" d="M 288 224 L 288 192 M 288 224 L 288 256" stroke="#1d6ae5" stroke-width="9" data-provenance="derived"/>
<path class="path" d="M 352 224 L 352 192 M 352 224 L 352 256" stroke="#d23be7" stroke-width="9" data-provenance="derived"/>
<path class="path" d="M 416 224 L 416 192 M 416 224 L 416 256" stroke="#e6261f" stroke-width="9" data-provenance="derived"/>
<path class="path" d="M 544 224 L 544 192 M 544 224 L 544 256" stroke="#76b82a" stroke-width="9" data-provenance="derived"/>
<path class="path" d="M 32 288 L 32 256 M 32 288 L 32 320" stroke="#e8b004" stroke-width="9" data-provenance="derived"/>
<path class="path" d="M 160 288 L 160 256 M 160 288 L 128 288" stroke="#34bbe6" stroke-width="9" data-provenance="derived"/>
<path class="path" d="M 352 288 L 352 256 M 352 288 L 352 320" stroke="#d23be7" stroke-width="9" data-provenance="derived"/>
<path class="path" d="M 416 288 L 416 256 M 416 288 L 416 320" stroke="#e6261f" stroke-width="9" data-provenance="derived"/>
<path class="path" d="M 480 288 L 480 256 M 480 288 L 480 320" stroke="#7ca9f2" stroke-width="9" data-provenance="derived"/>
<path class="path" d="M 544 288 L 544 256 M 544 288 L 544 320" stroke="#76b82a" stroke-width="9" data-provenance="derived"/>
<path class="path" d="M 32 352 L 64 352 M 32 352 L 32 320" stroke="#e8b004" stroke-width="9" data-provenance="derived"/>
<path class="path" d="M 96 352 L 128 352 M 96 352 L 64 352" stroke="#e8b004" stroke-width="9" data-provenance="derived"/>
<path class="path" d="M 224 352 L 256 352 M 224 352 L 224 320" stroke="#d23be7" stroke-width="9" data-provenance="derived"/>
<path class="path" d="M 288 352 L 320 352 M 288 352 L 256 352" stroke="#d23be7" stroke-width="9" data-provenance="derived"/>
<path class="path" d="M 352 352 L 352 320 M 352 352 L 320 352" stroke="#d23be7" stroke-width="9" data-provenance="derived"/>
<path class="path" d="M 416 352 L 416 320 M 416 352 L 416 384" stroke="#e6261f" stroke-width="9" data-provenance="derived"/>
<path class="path" d="M 480 352 L 480 320 M 480 352 L 480 384" stroke="#7ca9f2" stroke-width="9" data-provenance="derived"/>
<path class="path" d="M 544 352 L 544 320 M 544 352 L 544 384" stroke="#76b82a" stroke-width="9" data-provenance="derived"/>
<path class="path" d="M 96 416 L 128 416 M 96 416 L 64 416" stroke="#a3e048" stroke-width="9" data-provenance="derived"/>
<path class="path" d="M 160 416 L 192 416 M 160 416 L 128 416" stroke="#a3e048" stroke-width="9" data-provenance="derived"/>
<path class="path" d="M 224 416 L 256 416 M 224 416 L 192 416" stroke="#a3e048" stroke-width="9" data-provenance="derived"/>
<path class="path" d="M 288 416 L 320 416 M 288 416 L 256 416" stroke="#a3e048" stroke-width="9" data-provenance="derived"/>
<path class="path" d="M 352 416 L 352 448 M 352 416 L 320 416" stroke="#a3e048" stroke-width="9" data-provenance="derived"/>
<path class="path" d="M 416 416 L 416 384 M 416 416 L 416 448" stroke="#e6261f" stroke-width="9" data-provenance="derived"/>
<path class="path" d="M 480 416 L 480 384 M 480 416 L 480 448" stroke="#7ca9f2" stroke-width="9" data-provenance="derived"/>
<path class="path" d="M 544 416 L 544 384 M 544 416 L 544 448" stroke="#76b82a" stroke-width="9" data-provenance="derived"/>
<path class="path" d="M 32 480 L 64 480 M 32 480 L 32 512" stroke="#ed635e" stroke-width="9" data-provenance="derived"/>
<path class="path" d="M 96 480 L 128 480 M 96 480 L 64 480" stroke="#ed635e" stroke-width="9" data-provenance="derived"/>
<path class="path" d="M 160 480 L 192 480 M 160 480 L 128 480" stroke="#ed635e" stroke-width="9" data-provenance="derived"/>
<path class="path" d="M 224 480 L 256 480 M 224 480 L 192 480" stroke="#ed635e" stroke-width="9" data-provenance="derived"/>
<path class="path" d="M 352 480 L 352 448 M 352 480 L 352 512" stroke="#a3e048" stroke-width="9" data-provenance="derived"/>
<path class="path" d="M 416 480 L 416 448 M 416 480 L 416 512" stroke="#e6261f" stroke-width="9" data-provenance="derived"/>
<path class="path" d="M 480 480 L 480 448 M 480 480 L 480 512" stroke="#7ca9f2" stroke-width="9" data-provenance="derived"/>
<path class="path" d="M 544 480 L 544 448 M 544 480 L 544 512" stroke="#76b82a" stroke-width="9" data-provenance="derived"/>
<path class="path" d="M 160 544 L 192 544 M 160 544 L 128 544" stroke="#a3e048" stroke-width="9" data-provenance="derived"/>
<path class="path" d="M 224 544 L 256 544 M 224 544 L 192 544" stroke="#a3e048" stroke-width="9" data-provenance="derived"/>
<path class="path" d="M 288 544 L 320 544 M 288 544 L 256 544" stroke="#a3e048" stroke-width="9" data-provenance="derived"/>
<path class="path" d="M 352 544 L 352 512 M 352 544 L 320 544" stroke="#a3e048" stroke-width="9" data-provenance="derived"/>
<path class="path" d="M 288 96 L 288 128" stroke="#1d6ae5" stroke-width="9" data-provenance="derived"/>
<path class="path" d="M 416 96 L 416 64" stroke="#76b82a" stroke-width="9" data-provenance="derived"/>
<path class="path" d="M 480 96 L 480 128" stroke="#e6261f" stroke-width="9" data-provenance="derived"/>
<path class="path" d="M 32 160 L 32 128" stroke="#d23be7" stroke-width="9" data-provenance="derived"/>
<path class="path" d="M 160 160 L 160 192" stroke="#34bbe6" stroke-width="9" data-provenance="derived"/>
<path class="path" d="M 224 224 L 224 192" stroke="#e8b004" stroke-width="9" data-provenance="derived"/>
<path class="path" d="M 480 224 L 480 256" stroke="#7ca9f2" stroke-width="9" data-provenance="derived"/>
<path class="path" d="M 96 288 L 128 288" stroke="#34bbe6" stroke-width="9" data-provenance="derived"/>
<path class="path" d="M 224 288 L 224 320" stroke="#d23be7" stroke-width="9" data-provenance="derived"/>
<path class="path" d="M 288 288 L 288 256" stroke="#1d6ae5" stroke-width="9" data-provenance="derived"/>
<path class="path" d="M 160 352 L 128 352" stroke="#e8b004" stroke-width="9" data-provenance="derived"/>
<path class="path" d="M 32 416 L 64 416" stroke="#a3e048" stroke-width="9" data-provenance="derived"/>
<path class="path" d="M 288 480 L 256 480" stroke="#ed635e" stroke-width="9" data-provenance="derived"/>
<path class="path" d="M 32 544 L 32 512" stroke="#ed635e" stroke-width="9" data-provenance="derived"/>
<path class="path" d="M 96 544 L 128 544" stroke="#a3e048" stroke-width="9" data-provenance="derived"/>
<path class="path" d="M 416 544 L 416 512" stroke="#e6261f" stroke-width="9" data-provenance="derived"/>
<path class="path" d="M 480 544 L 480 512" stroke="#7ca9f2" stroke-width="9" data-provenance="derived"/>
<path class="path" d="M 544 544 L 544 512" stroke="#76b82a" stroke-width="9" data-provenance="derived"/>
</g>
<g data-layer="annotation">
<text x="288" y="96" class="bigtext halo" fill="#1d6ae5" data-provenance="given">7</text>
<text x="416" y="96" class="bigtext halo" fill="#76b82a" data-provenance="given">9</text>
<text x="480" y="96" class="bigtext halo" fill="#e6261f" data-provenance="given">4</text>
<text x="32" y="160" class="bigtext halo" fill="#d23be7" data-provenance="given">6</text>
<text x="160" y="160" class="bigtext halo" fill="#34bbe6" data-provenance="given">3</text>
<text x="224" y="224" class="bigtext halo" fill="#e8b004" data-provenance="given">8</text>
<text x="480" y="224" class="bigtext halo" fill="#7ca9f2" data-provenance="given">5</text>
<text x="96" y="288" class="bigtext halo" fill="#34bbe6" data-provenance="given">3</text>
<text x="224" y="288" class="bigtext halo" fill="#d23be7" data-provenance="given">6</text>
<text x="288" y="288" class="bigtext halo" fill="#1d6ae5" data-provenance="given">7</text>
<text x="160" y="352" class="bigtext halo" fill="#e8b004" data-provenance="given">8</text>
<text x="32" y="416" class="bigtext halo" fill="#a3e048" data-provenance="given">2</text>
<text x="288" y="480" class="bigtext halo" fill="#ed635e" data-provenance="given">1</text>
<text x="32" y="544" class="bigtext halo" fill="#ed635e" data-provenance="given">1</text>
<text x="96" y="544" class="bigtext halo" fill="#a3e048" data-provenance="given">2</text>
<text x="416" y="544" class="bigtext halo" fill="#e6261f" data-provenance="given">4</text>
<text x="480" y="544" class="bigtext halo" fill="#7ca9f2" data-provenance="given">5</text>
<text x="544" y="544" class="bigtext halo" fill="#76b82a" data-provenance="given">9</text>
</g>
</svg>
