<!-- Generated by ASPuzzle https://github.com/jolyonb/aspuzzle -->
<svg xmlns="http://www.w3.org/2000/svg" width="352" height="352" viewBox="-16 -16 352 352">
<style>
text { font-family: Tahoma, Verdana, Roboto, sans-serif; text-anchor: middle; dominant-baseline: middle; }
.halo { paint-order: stroke fill; stroke: #ffffff; stroke-width: 2px;
       stroke-linejoin: round; }
.bigtext { font-size: 48px; transform: translate(0, 4px); }
.medtext { font-size: 32px; transform: translate(0, 2px); }
.smalltext { font-size: 24px; transform: translate(0, 1px); }
.emoji { font-size: 40px; transform: translate(0, 4px); }
.lattice { fill: none; stroke: #000000; stroke-width: 1;
          stroke-linecap: butt; stroke-linejoin: bevel; vector-effect: non-scaling-stroke;
          shape-rendering: geometricprecision; }
.frame { fill: none; stroke: #000000; stroke-width: 3;
        stroke-linecap: butt; stroke-linejoin: miter; vector-effect: non-scaling-stroke;
        shape-rendering: geometricprecision; }
.edge { fill: none; stroke-linecap: butt; stroke-linejoin: miter;
       shape-rendering: geometricprecision; }
.path { fill: none; stroke-linecap: round; stroke-linejoin: round;
       shape-rendering: geometricprecision; }
</style>
<g data-layer="base">
<path class="lattice" d="M 0 128 L 0 192 L 0 256 L 0 320 L 64 320 L 128 320 L 128 256 L 128 192 L 128 128 L 128 64 L 128 0 L 192 0 L 192 64 L 128 64 L 64 64 L 0 64 L 0 0 L 64 0 L 128 0 M 0 128 L 0 64 M 0 128 L 64 128 L 128 128 L 192 128 L 192 192 L 128 192 L 64 192 L 0 192 M 0 256 L 64 256 L 128 256 L 192 256 L 192 192 L 256 192 L 256 128 L 192 128 L 192 64 L 256 64 L 256 0 L 192 0 M 128 320 L 192 320 L 192 256 L 256 256 L 256 192 L 320 192 L 320 128 L 256 128 L 256 64 L 320 64 L 320 0 L 256 0 M 192 320 L 256 320 L 256 256 L 320 256 L 320 192 M 256 320 L 320 320 L 320 256 M 320 128 L 320 64 M 64 0 L 64 64 L 64 128 L 64 192 L 64 256 L 64 320"/>
<path class="frame" d="M 0 0 L 0 64 L 0 128 L 0 192 L 0 256 L 0 320 L 64 320 L 128 320 L 192 320 L 256 320 L 320 320 L 320 256 L 320 192 L 320 128 L 320 64 L 320 0 L 256 0 L 192 0 L 128 0 L 64 0 Z"/>
</g>
<g data-layer="glyph">
<text x="224" y="32" class="emoji" fill="#e6261f" data-provenance="derived">💣</text>
<text x="32" y="96" class="emoji" fill="#e6261f" data-provenance="derived">💣</text>
<text x="96" y="96" class="emoji" fill="#e6261f" data-provenance="derived">💣</text>
<text x="288" y="96" class="emoji" fill="#e6261f" data-provenance="derived">💣</text>
<text x="96" y="160" class="emoji" fill="#e6261f" data-provenance="derived">💣</text>
<text x="160" y="224" class="emoji" fill="#e6261f" data-provenance="derived">💣</text>
<text x="288" y="288" class="emoji" fill="#e6261f" data-provenance="derived">💣</text>
</g>
<g data-layer="annotation">
<text x="96" y="32" class="bigtext halo" fill="#76b82a" data-provenance="given">2</text>
<text x="160" y="96" class="bigtext halo" fill="#e6261f" data-provenance="given">3</text>
<text x="224" y="96" class="bigtext halo" fill="#76b82a" data-provenance="given">2</text>
<text x="32" y="160" class="bigtext halo" fill="#e6261f" data-provenance="given">3</text>
<text x="224" y="160" class="bigtext halo" fill="#76b82a" data-provenance="given">2</text>
<text x="96" y="224" class="bigtext halo" fill="#76b82a" data-provenance="given">2</text>
<text x="288" y="224" class="bigtext halo" fill="#1d6ae5" data-provenance="given">1</text>
<text x="160" y="288" class="bigtext halo" fill="#1d6ae5" data-provenance="given">1</text>
<text x="224" y="288" class="bigtext halo" fill="#76b82a" data-provenance="given">2</text>
</g>
</svg>
