<!-- Generated by ASPuzzle https://github.com/jolyonb/aspuzzle -->
<svg xmlns="http://www.w3.org/2000/svg" width="672" height="672" viewBox="-16 -16 672 672">
<style>
text { font-family: Tahoma, Verdana, Roboto, sans-serif; text-anchor: middle; dominant-baseline: middle; }
.halo { paint-order: stroke fill; stroke: #ffffff; stroke-width: 2px;
       stroke-linejoin: round; }
.bigtext { font-size: 48px; transform: translate(0, 4px); }
.medtext { font-size: 40px; transform: translate(0, 3px); }
.smalltext { font-size: 24px; transform: translate(0, 1px); }
.emoji { font-size: 40px; transform: translate(0, 4px); }
.lattice { fill: none; stroke: #000000; stroke-width: 1;
          stroke-linecap: butt; stroke-linejoin: bevel; vector-effect: non-scaling-stroke;
          shape-rendering: geometricprecision; }
.frame { fill: none; stroke: #000000; stroke-width: 3;
        stroke-linecap: butt; stroke-linejoin: miter; vector-effect: non-scaling-stroke;
        shape-rendering: geometricprecision; }
.edge { fill: none; stroke-linecap: butt; stroke-linejoin: miter;
       shape-rendering: geometricprecision; }
.path { fill: none; stroke-linecap: round; stroke-linejoin: round;
       shape-rendering: geometricprecision; }
</style>
<rect x="-16" y="-16" width="672" height="672" fill="#ffffff"/>
<g data-layer="base">
<circle cx="64" cy="0" r="4" fill="#000000"/>
<circle cx="0" cy="0" r="4" fill="#000000"/>
<circle cx="64" cy="64" r="4" fill="#000000"/>
<circle cx="0" cy="64" r="4" fill="#000000"/>
<circle cx="128" cy="0" r="4" fill="#000000"/>
<circle cx="128" cy="64" r="4" fill="#000000"/>
<circle cx="192" cy="0" r="4" fill="#000000"/>
<circle cx="192" cy="64" r="4" fill="#000000"/>
<circle cx="256" cy="0" r="4" fill="#000000"/>
<circle cx="256" cy="64" r="4" fill="#000000"/>
<circle cx="320" cy="0" r="4" fill="#000000"/>
<circle cx="320" cy="64" r="4" fill="#000000"/>
<circle cx="384" cy="0" r="4" fill="#000000"/>
<circle cx="384" cy="64" r="4" fill="#000000"/>
<circle cx="448" cy="0" r="4" fill="#000000"/>
<circle cx="448" cy="64" r="4" fill="#000000"/>
<circle cx="512" cy="0" r="4" fill="#000000"/>
<circle cx="512" cy="64" r="4" fill="#000000"/>
<circle cx="576" cy="0" r="4" fill="#000000"/>
<circle cx="576" cy="64" r="4" fill="#000000"/>
<circle cx="640" cy="0" r="4" fill="#000000"/>
<circle cx="640" cy="64" r="4" fill="#000000"/>
<circle cx="64" cy="128" r="4" fill="#000000"/>
<circle cx="0" cy="128" r="4" fill="#000000"/>
<circle cx="128" cy="128" r="4" fill="#000000"/>
<circle cx="192" cy="128" r="4" fill="#000000"/>
<circle cx="256" cy="128" r="4" fill="#000000"/>
<circle cx="320" cy="128" r="4" fill="#000000"/>
<circle cx="384" cy="128" r="4" fill="#000000"/>
<circle cx="448" cy="128" r="4" fill="#000000"/>
<circle cx="512" cy="128" r="4" fill="#000000"/>
<circle cx="576" cy="128" r="4" fill="#000000"/>
<circle cx="640" cy="128" r="4" fill="#000000"/>
<circle cx="64" cy="192" r="4" fill="#000000"/>
<circle cx="0" cy="192" r="4" fill="#000000"/>
<circle cx="128" cy="192" r="4" fill="#000000"/>
<circle cx="192" cy="192" r="4" fill="#000000"/>
<circle cx="256" cy="192" r="4" fill="#000000"/>
<circle cx="320" cy="192" r="4" fill="#000000"/>
<circle cx="384" cy="192" r="4" fill="#000000"/>
<circle cx="448" cy="192" r="4" fill="#000000"/>
<circle cx="512" cy="192" r="4" fill="#000000"/>
<circle cx="576" cy="192" r="4" fill="#000000"/>
<circle cx="640" cy="192" r="4" fill="#000000"/>
<circle cx="64" cy="256" r="4" fill="#000000"/>
<circle cx="0" cy="256" r="4" fill="#000000"/>
<circle cx="128" cy="256" r="4" fill="#000000"/>
<circle cx="192" cy="256" r="4" fill="#000000"/>
<circle cx="256" cy="256" r="4" fill="#000000"/>
<circle cx="320" cy="256" r="4" fill="#000000"/>
<circle cx="384" cy="256" r="4" fill="#000000"/>
<circle cx="448" cy="256" r="4" fill="#000000"/>
<circle cx="512" cy="256" r="4" fill="#000000"/>
<circle cx="576" cy="256" r="4" fill="#000000"/>
<circle cx="640" cy="256" r="4" fill="#000000"/>
<circle cx="64" cy="320" r="4" fill="#000000"/>
<circle cx="0" cy="320" r="4" fill="#000000"/>
<circle cx="128" cy="320" r="4" fill="#000000"/>
<circle cx="192" cy="320" r="4" fill="#000000"/>
<circle cx="256" cy="320" r="4" fill="#000000"/>
<circle cx="320" cy="320" r="4" fill="#000000"/>
<circle cx="384" cy="320" r="4" fill="#000000"/>
<circle cx="448" cy="320" r="4" fill="#000000"/>
<circle cx="512" cy="320" r="4" fill="#000000"/>
<circle cx="576" cy="320" r="4" fill="#000000"/>
<circle cx="640" cy="320" r="4" fill="#000000"/>
<circle cx="64" cy="384" r="4" fill="#000000"/>
<circle cx="0" cy="384" r="4" fill="#000000"/>
<circle cx="128" cy="384" r="4" fill="#000000"/>
<circle cx="192" cy="384" r="4" fill="#000000"/>
<circle cx="256" cy="384" r="4" fill="#000000"/>
<circle cx="320" cy="384" r="4" fill="#000000"/>
<circle cx="384" cy="384" r="4" fill="#000000"/>
<circle cx="448" cy="384" r="4" fill="#000000"/>
<circle cx="512" cy="384" r="4" fill="#000000"/>
<circle cx="576" cy="384" r="4" fill="#000000"/>
<circle cx="640" cy="384" r="4" fill="#000000"/>
<circle cx="64" cy="448" r="4" fill="#000000"/>
<circle cx="0" cy="448" r="4" fill="#000000"/>
<circle cx="128" cy="448" r="4" fill="#000000"/>
<circle cx="192" cy="448" r="4" fill="#000000"/>
<circle cx="256" cy="448" r="4" fill="#000000"/>
<circle cx="320" cy="448" r="4" fill="#000000"/>
<circle cx="384" cy="448" r="4" fill="#000000"/>
<circle cx="448" cy="448" r="4" fill="#000000"/>
<circle cx="512" cy="448" r="4" fill="#000000"/>
<circle cx="576" cy="448" r="4" fill="#000000"/>
<circle cx="640" cy="448" r="4" fill="#000000"/>
<circle cx="64" cy="512" r="4" fill="#000000"/>
<circle cx="0" cy="512" r="4" fill="#000000"/>
<circle cx="128" cy="512" r="4" fill="#000000"/>
<circle cx="192" cy="512" r="4" fill="#000000"/>
<circle cx="256" cy="512" r="4" fill="#000000"/>
<circle cx="320" cy="512" r="4" fill="#000000"/>
<circle cx="384" cy="512" r="4" fill="#000000"/>
<circle cx="448" cy="512" r="4" fill="#000000"/>
<circle cx="512" cy="512" r="4" fill="#000000"/>
<circle cx="576" cy="512" r="4" fill="#000000"/>
<circle cx="640" cy="512" r="4" fill="#000000"/>
<circle cx="64" cy="576" r="4" fill="#000000"/>
<circle cx="0" cy="576" r="4" fill="#000000"/>
<circle cx="128" cy="576" r="4" fill="#000000"/>
<circle cx="192" cy="576" r="4" fill="#000000"/>
<circle cx="256" cy="576" r="4" fill="#000000"/>
<circle cx="320" cy="576" r="4" fill="#000000"/>
<circle cx="384" cy="576" r="4" fill="#000000"/>
<circle cx="448" cy="576" r="4" fill="#000000"/>
<circle cx="512" cy="576" r="4" fill="#000000"/>
<circle cx="576" cy="576" r="4" fill="#000000"/>
<circle cx="640" cy="576" r="4" fill="#000000"/>
<circle cx="64" cy="640" r="4" fill="#000000"/>
<circle cx="0" cy="640" r="4" fill="#000000"/>
<circle cx="128" cy="640" r="4" fill="#000000"/>
<circle cx="192" cy="640" r="4" fill="#000000"/>
<circle cx="256" cy="640" r="4" fill="#000000"/>
<circle cx="320" cy="640" r="4" fill="#000000"/>
<circle cx="384" cy="640" r="4" fill="#000000"/>
<circle cx="448" cy="640" r="4" fill="#000000"/>
<circle cx="512" cy="640" r="4" fill="#000000"/>
<circle cx="576" cy="640" r="4" fill="#000000"/>
<circle cx="640" cy="640" r="4" fill="#000000"/>
</g>
<g data-layer="annotation">
<text x="32" y="32" class="bigtext halo" fill="#7ca9f2" data-provenance="given">3</text>
<text x="96" y="32" class="emoji" fill="#ed635e" data-provenance="given">🐺</text>
<text x="160" y="32" class="bigtext halo" fill="#7ca9f2" data-provenance="given">3</text>
<text x="224" y="32" class="bigtext halo" fill="#7ca9f2" data-provenance="given">2</text>
<text x="288" y="32" class="bigtext halo" fill="#7ca9f2" data-provenance="given">2</text>
<text x="416" y="32" class="emoji" fill="#ed635e" data-provenance="given">🐺</text>
<text x="544" y="32" class="bigtext halo" fill="#7ca9f2" data-provenance="given">2</text>
<text x="608" y="32" class="bigtext halo" fill="#7ca9f2" data-provenance="given">1</text>
<text x="96" y="96" class="bigtext halo" fill="#7ca9f2" data-provenance="given">2</text>
<text x="288" y="96" class="emoji" fill="#ed635e" data-provenance="given">🐺</text>
<text x="352" y="96" class="bigtext halo" fill="#7ca9f2" data-provenance="given">2</text>
<text x="608" y="96" class="emoji" fill="#ed635e" data-provenance="given">🐺</text>
<text x="96" y="160" class="bigtext halo" fill="#7ca9f2" data-provenance="given">2</text>
<text x="160" y="160" class="emoji" fill="#ed635e" data-provenance="given">🐺</text>
<text x="224" y="160" class="bigtext halo" fill="#7ca9f2" data-provenance="given">3</text>
<text x="416" y="160" class="bigtext halo" fill="#7ca9f2" data-provenance="given">1</text>
<text x="480" y="160" class="emoji" fill="#ed635e" data-provenance="given">🐺</text>
<text x="608" y="160" class="bigtext halo" fill="#7ca9f2" data-provenance="given">2</text>
<text x="32" y="224" class="emoji" fill="#ed635e" data-provenance="given">🐺</text>
<text x="160" y="224" class="bigtext halo" fill="#7ca9f2" data-provenance="given">2</text>
<text x="288" y="224" class="bigtext halo" fill="#7ca9f2" data-provenance="given">2</text>
<text x="352" y="224" class="emoji" fill="#ed635e" data-provenance="given">🐺</text>
<text x="480" y="224" class="bigtext halo" fill="#7ca9f2" data-provenance="given">2</text>
<text x="608" y="224" class="bigtext halo" fill="#7ca9f2" data-provenance="given">1</text>
<text x="224" y="288" class="emoji" fill="#ed635e" data-provenance="given">🐺</text>
<text x="416" y="288" class="bigtext halo" fill="#7ca9f2" data-provenance="given">3</text>
<text x="544" y="288" class="emoji" fill="#ed635e" data-provenance="given">🐺</text>
<text x="608" y="288" class="bigtext halo" fill="#7ca9f2" data-provenance="given">3</text>
<text x="32" y="352" class="bigtext halo" fill="#7ca9f2" data-provenance="given">2</text>
<text x="96" y="352" class="emoji" fill="#ed635e" data-provenance="given">🐺</text>
<text x="224" y="352" class="bigtext halo" fill="#7ca9f2" data-provenance="given">0</text>
<text x="416" y="352" class="emoji" fill="#ed635e" data-provenance="given">🐺</text>
<text x="32" y="416" class="bigtext halo" fill="#7ca9f2" data-provenance="given">2</text>
<text x="160" y="416" class="bigtext halo" fill="#7ca9f2" data-provenance="given">0</text>
<text x="288" y="416" class="emoji" fill="#ed635e" data-provenance="given">🐺</text>
<text x="352" y="416" class="bigtext halo" fill="#7ca9f2" data-provenance="given">3</text>
<text x="480" y="416" class="bigtext halo" fill="#7ca9f2" data-provenance="given">1</text>
<text x="608" y="416" class="emoji" fill="#ed635e" data-provenance="given">🐺</text>
<text x="32" y="480" class="bigtext halo" fill="#7ca9f2" data-provenance="given">2</text>
<text x="160" y="480" class="emoji" fill="#ed635e" data-provenance="given">🐺</text>
<text x="224" y="480" class="bigtext halo" fill="#7ca9f2" data-provenance="given">3</text>
<text x="416" y="480" class="bigtext halo" fill="#7ca9f2" data-provenance="given">1</text>
<text x="480" y="480" class="emoji" fill="#ed635e" data-provenance="given">🐺</text>
<text x="544" y="480" class="bigtext halo" fill="#7ca9f2" data-provenance="given">2</text>
<text x="32" y="544" class="emoji" fill="#ed635e" data-provenance="given">🐺</text>
<text x="288" y="544" class="bigtext halo" fill="#7ca9f2" data-provenance="given">2</text>
<text x="352" y="544" class="emoji" fill="#ed635e" data-provenance="given">🐺</text>
<text x="544" y="544" class="bigtext halo" fill="#7ca9f2" data-provenance="given">1</text>
<text x="32" y="608" class="bigtext halo" fill="#7ca9f2" data-provenance="given">3</text>
<text x="96" y="608" class="bigtext halo" fill="#7ca9f2" data-provenance="given">1</text>
<text x="224" y="608" class="emoji" fill="#ed635e" data-provenance="given">🐺</text>
<text x="352" y="608" class="bigtext halo" fill="#7ca9f2" data-provenance="given">2</text>
<text x="416" y="608" class="bigtext halo" fill="#7ca9f2" data-provenance="given">2</text>
<text x="480" y="608" class="bigtext halo" fill="#7ca9f2" data-provenance="given">2</text>
<text x="544" y="608" class="emoji" fill="#ed635e" data-provenance="given">🐺</text>
<text x="608" y="608" class="bigtext halo" fill="#7ca9f2" data-provenance="given">3</text>
</g>
</svg>
